<?xml version="1.0" encoding="UTF-8" standalone="no"?>
<!-- Created with Inkscape (http://www.inkscape.org/) -->

<svg
   version="1.1"
   id="svg9"
   xml:space="preserve"
   width="2500"
   height="2500"
   viewBox="0 0 2500 2500"
   sodipodi:docname="mcgill_logo.svg"
   inkscape:version="1.1 (c68e22c387, 2021-05-23)"
   xmlns:inkscape="http://www.inkscape.org/namespaces/inkscape"
   xmlns:sodipodi="http://sodipodi.sourceforge.net/DTD/sodipodi-0.dtd"
   xmlns="http://www.w3.org/2000/svg"
   xmlns:svg="http://www.w3.org/2000/svg"><defs
     id="defs13" /><sodipodi:namedview
     id="namedview11"
     pagecolor="#ffffff"
     bordercolor="#666666"
     borderopacity="1.0"
     inkscape:pageshadow="2"
     inkscape:pageopacity="0.0"
     inkscape:pagecheckerboard="0"
     showgrid="false"
     inkscape:zoom="0.3204"
     inkscape:cx="1250"
     inkscape:cy="1250"
     inkscape:window-width="1920"
     inkscape:window-height="1009"
     inkscape:window-x="-8"
     inkscape:window-y="-8"
     inkscape:window-maximized="1"
     inkscape:current-layer="g15" /><g
     id="g15"
     inkscape:groupmode="layer"
     inkscape:label="mcgill_logo"
     transform="matrix(1.3333333,0,0,1.3333333,0,6.25e-5)"><g
       id="g17"><path
         d="M 0,0 H 1875 V 1875 H 0 Z"
         style="fill:#ffffff;fill-opacity:1;fill-rule:nonzero;stroke:none"
         id="path19" /><path
         d="M 386.176,805.414 C 335.078,621.441 364.715,450.766 364.715,244.301 548.688,153.34 731.633,145.172 929.902,145.172 c 170.696,0 412.907,21.469 559.071,99.129 15.328,194.187 23.5,364.871 -26.578,585.633 -49.055,220.761 -194.184,526.355 -525.325,751.214 C 575.254,1345.047 457.719,1058.867 386.176,805.414 Z"
         style="fill:#cf4037;fill-opacity:1;fill-rule:evenodd;stroke:none"
         id="path21" /><path
         d="M 558.902,535.598 381.059,728.75 c 39.863,186.016 150.238,574.379 553.953,837.059 400.648,-275.957 507.949,-653.094 531.449,-841.141 L 1293.742,534.566 1102.621,728.75 925.816,536.617 750.023,726.707 Z M 640.66,338.336 c -2.043,0 -7.14,-1.023 0,-3.074 5.11,0 12.266,0 21.469,13.297 5.105,-2.043 15.332,-18.403 26.566,-13.297 -1.011,16.363 -35.769,78.695 -39.863,84.843 -15.32,-9.203 -104.246,-13.289 -96.066,-13.289 7.16,0 -83.813,2.043 -96.078,13.289 -4.086,-9.203 -39.864,-68.48 -39.864,-87.898 10.227,-4.086 22.492,11.234 26.567,14.309 9.203,-14.309 17.382,-14.309 20.445,-14.309 8.184,3.055 4.086,5.106 1.023,6.129 -42.925,36.789 20.446,75.621 32.711,36.789 57.227,5.117 42.93,-39.863 28.61,-47.012 -10.223,-3.066 -3.063,-4.086 0,-4.086 5.105,-2.043 11.246,-2.043 11.246,1.02 0,-23.508 3.074,-40.883 15.34,-47.012 13.277,8.18 16.351,23.512 13.277,47.012 3.074,-3.063 9.203,-1.02 13.289,-1.02 2.039,1.02 11.242,1.02 2.039,6.129 -15.328,5.106 -28.605,52.129 26.578,44.969 13.297,38.84 79.735,-5.098 32.711,-36.789 z m -36.789,47.012 14.309,19.425 -29.637,-4.093 z m -101.183,0 -13.286,19.425 30.661,-2.043 z m 50.085,-21.457 22.481,36.789 h -41.906 z"
         style="fill:#ffffff;fill-opacity:1;fill-rule:evenodd;stroke:none"
         id="path23" /><path
         d="m 480.207,464.051 c -6.137,-10.223 -13.285,-27.594 -17.383,-34.754 15.344,-11.246 73.59,-12.266 93.016,-13.289 31.68,0 74.617,5.109 89.937,13.289 0,-3.067 -9.191,27.594 -13.277,36.797 -23.5,-9.203 -58.258,-10.223 -78.703,-10.223 -24.531,-2.043 -54.172,1.02 -73.59,8.18 z m 143.082,-30.668 c 6.129,0 10.223,4.094 10.223,10.222 0,6.137 -4.094,10.223 -10.223,10.223 -6.129,0 -10.223,-4.086 -10.223,-10.223 0,-6.128 4.094,-10.222 10.223,-10.222 z m -33.726,-7.153 c 6.128,0 10.222,4.086 10.222,10.227 0,6.137 -4.082,10.211 -10.222,10.211 -6.137,0 -10.223,-4.074 -10.223,-10.211 0,-6.141 4.086,-10.227 10.223,-10.227 z m -31.68,-3.074 c 5.097,0 11.242,6.129 11.242,11.246 0,5.106 -6.137,10.223 -11.242,10.223 -5.11,0 -10.227,-5.105 -10.227,-10.223 0,-5.105 5.117,-11.246 10.227,-11.246 z m -34.758,3.074 c 6.129,0 11.246,4.086 11.246,10.227 0,7.148 -5.105,10.211 -11.246,10.211 -5.105,0 -10.223,-3.063 -10.223,-10.211 0.016,-5.641 4.582,-10.211 10.223,-10.227 z m -33.723,7.153 c 4.086,0 8.18,3.062 8.18,10.222 0,6.137 -4.086,10.223 -8.18,10.223 -6.14,0 -11.234,-4.086 -11.234,-10.223 0,-7.148 5.094,-10.222 11.234,-10.222 z"
         style="fill:#ffffff;fill-opacity:1;fill-rule:evenodd;stroke:none"
         id="path25" /><path
         d="m 555.828,464.051 c 41.906,0 74.621,4.086 74.621,10.222 0,4.086 -32.715,7.153 -74.621,7.153 -39.863,0 -73.586,-3.055 -73.586,-7.153 0,-6.136 33.723,-10.222 73.586,-10.222 z m 825.813,-125.715 c -5.11,0 -9.192,-1.023 0,-3.074 4.086,0 13.297,0 19.414,13.297 4.105,-2.043 17.383,-18.403 28.629,-13.297 -2.055,16.363 -34.746,78.695 -39.864,84.843 -15.328,-9.203 -105.269,-13.289 -97.097,-13.289 8.191,0 -81.75,2.043 -95.047,13.289 -4.086,-9.203 -39.863,-68.48 -41.895,-87.898 13.278,-4.086 24.524,11.234 28.61,14.309 9.191,-14.309 17.363,-14.309 19.414,-14.309 7.16,3.055 5.105,5.106 2.05,6.129 -46,36.789 20.43,75.621 31.676,36.789 58.266,5.117 42.934,-39.863 28.625,-47.012 -10.222,-3.066 -2.051,-4.086 1.012,-4.086 2.055,-2.043 11.246,-2.043 11.246,1.02 0,-23.508 0,-40.883 14.309,-47.012 12.277,8.18 16.359,23.512 14.308,47.012 2.051,-3.063 9.192,-1.02 13.297,-1.02 1.024,1.02 9.192,1.02 0,6.129 -15.328,5.106 -26.574,52.129 28.61,44.969 10.23,38.84 78.703,-5.098 32.703,-36.789 z m -36.782,47.012 14.309,19.425 -29.637,-4.093 z m -52.136,-21.457 20.445,36.789 h -38.832 z m -52.129,21.457 -13.278,19.425 33.743,-2.043 z"
         style="fill:#ffffff;fill-opacity:1;fill-rule:evenodd;stroke:none"
         id="path27" /><path
         d="m 1220.176,464.051 c -6.137,-10.223 -13.297,-27.594 -17.383,-34.754 16.363,-11.246 73.598,-12.266 93.012,-13.289 32.695,0 75.613,5.109 89.922,13.289 0,-3.067 -9.196,27.594 -13.278,36.797 -23.504,-9.203 -57.226,-10.223 -78.695,-10.223 -24.531,-2.043 -54.164,1.02 -73.578,8.18 z m 143.07,-30.668 c 6.137,0 11.246,4.094 11.246,10.222 0,6.137 -5.109,10.223 -11.246,10.223 -5.109,0 -10.223,-4.086 -10.223,-10.223 0.02,-5.636 4.586,-10.203 10.223,-10.222 z m -33.715,-7.153 c 6.137,0 10.223,4.086 10.223,10.227 0,6.137 -4.086,10.211 -10.223,10.211 -6.136,0 -10.222,-4.074 -10.222,-10.211 0,-6.141 4.086,-10.227 10.222,-10.227 z m -30.672,-3.074 c 4.086,0 10.223,6.129 10.223,11.246 0,5.106 -6.137,10.223 -10.223,10.223 -5.64,-0.008 -10.211,-4.582 -10.222,-10.223 0.011,-5.105 4.086,-11.246 10.222,-11.246 z m -35.765,3.074 c 6.136,0 12.273,4.086 12.273,10.227 0,7.148 -6.137,10.211 -12.273,10.211 -4.086,0 -10.223,-3.063 -10.223,-10.211 0,-6.141 6.137,-10.227 10.223,-10.227 z m -33.727,7.153 c 4.086,0 9.196,3.062 9.196,10.222 0,6.137 -5.11,10.223 -9.196,10.223 -6.137,0 -10.222,-4.086 -10.222,-10.223 0,-7.148 4.085,-10.222 10.222,-10.222 z"
         style="fill:#ffffff;fill-opacity:1;fill-rule:evenodd;stroke:none"
         id="path29" /><path
         d="m 1296.828,464.051 c 40.863,0 73.578,4.086 73.578,10.222 0,4.086 -32.715,7.153 -73.578,7.153 -39.883,0 -74.629,-3.055 -74.629,-7.153 0,-6.136 34.754,-10.222 74.629,-10.222 z M 804.188,223.863 c 0,0 25.554,10.227 49.054,2.043 27.598,-13.285 51.106,-18.394 70.524,-9.191 v 232.008 c -16.352,-6.129 -34.746,-4.086 -61.321,2.043 -23.511,7.148 -38.843,7.148 -58.257,3.062 z m 75.64,170.688 c 0,-8.18 5.106,-10.223 9.192,-10.223 3.062,0 8.179,2.043 8.179,10.223 0,9.191 -5.105,11.234 -8.179,11.234 -4.086,0 -9.192,-2.043 -9.192,-11.234 z m -6.129,0 c 0,15.328 11.235,17.371 15.321,17.371 4.093,0 14.316,-2.043 14.316,-17.371 0,-14.309 -10.223,-15.332 -14.316,-15.332 -4.086,0 -15.321,1.023 -15.321,15.332 z m -12.277,8.172 -12.266,-22.493 h -7.148 v 31.684 h 6.137 v -22.492 l 12.265,22.492 h 7.149 v -31.672 h -6.137 z m -32.703,11.242 h 6.136 v -30.66 h -6.136 z m 79.726,-102.203 h -9.203 l -5.105,24.531 -6.129,-24.531 h -9.192 v 30.668 h 6.125 v -25.551 l 6.129,25.551 h 5.11 l 6.136,-25.551 v 25.551 h 6.137 v -30.668 z m -58.257,18.394 c 0,-8.183 5.105,-11.246 9.191,-11.246 2.043,0 8.18,3.063 8.18,11.246 0,9.199 -6.137,11.242 -8.18,11.242 -4.086,0 -9.191,-2.043 -9.191,-11.242 z m -6.137,0 c 0,14.309 10.222,16.352 15.328,16.352 3.066,0 14.32,-2.043 14.32,-16.352 0,-14.308 -11.246,-16.351 -14.32,-16.351 -5.106,0.008 -15.328,2.043 -15.328,16.351 z m -23.512,-7.152 h 6.129 c 3.062,0 7.16,1.023 7.16,10.226 0,5.114 -2.043,10.223 -7.16,10.223 h -6.129 z m -7.148,25.555 h 13.285 c 11.234,0 13.289,-9.204 13.289,-15.34 0,-6.129 -2.055,-15.328 -12.266,-15.328 h -14.308 z m 59.277,-74.61 -12.258,-21.469 h -7.16 v 30.672 h 6.141 v -21.468 l 12.265,21.468 h 7.16 V 252.48 h -6.14 v 21.469 z m -33.727,10.215 h 5.11 v -30.66 h -5.11 z m -44.968,-58.258 -19.426,17.375 v 232.004 l 19.426,-20.433 z m -12.266,253.465 21.469,-17.363 c 16.351,4.086 50.074,-2.043 65.414,-5.117 26.578,-3.063 37.82,-8.168 57.238,0 -11.246,5.117 -17.375,14.312 -17.375,22.48 z m 295.371,0 -21.449,-17.363 c -18.414,4.086 -49.074,-2.043 -65.418,-5.117 -28.625,-3.063 -37.828,-8.168 -55.191,0 9.203,5.117 14.308,14.312 13.289,22.48 z m -15.34,-256.527 20.446,20.437 v 229.961 l -20.446,-19.414 z m -8.164,1.019 c 0,0 -26.574,10.227 -50.074,2.043 -28.609,-13.285 -51.109,-18.394 -67.449,-9.191 v 232.008 c 14.308,-6.129 31.672,-4.086 57.226,2.043 25.555,7.148 39.864,7.148 60.297,3.062 z m -94.023,187.039 h 14.308 c 10.227,0 12.258,-10.222 12.258,-16.351 0,-6.141 -2.031,-15.332 -12.258,-15.332 h -14.308 z m 7.14,-25.554 h 6.137 c 3.074,0 6.141,0 6.141,9.203 0,5.097 -1.024,11.234 -6.141,11.234 h -6.137 z m 27.606,14.3 c 0,14.309 11.226,16.36 15.332,16.36 4.086,0 15.328,-2.043 15.328,-16.36 0,-14.308 -11.242,-16.351 -15.328,-16.351 -4.106,0.008 -15.332,2.051 -15.332,16.351 z m 7.16,0 c 0,-8.171 4.066,-11.238 8.172,-11.238 3.055,0 8.172,3.067 8.172,11.238 0,9.2 -5.11,11.254 -8.172,11.254 -4.106,0 -8.172,-2.043 -8.172,-11.254 z m -24.543,-63.355 h 14.328 v -6.129 h -14.328 v -6.129 h 16.363 v -5.105 h -22.492 v 30.66 h 6.141 v -13.297 z m 23.524,14.301 h 7.136 V 318.91 h -7.136 z m -28.641,-86.867 c -1.02,-5.106 -4.082,-11.247 -13.277,-11.247 -8.168,0 -14.309,6.141 -14.309,16.356 0,11.254 6.141,16.352 14.309,16.352 7.16,0 12.257,-4.086 13.277,-11.239 h -7.137 c 0,4.086 -3.074,6.141 -6.14,6.141 -6.137,0 -8.168,-5.11 -8.168,-11.254 0,-8.172 5.105,-10.215 8.168,-10.215 5.109,0 6.14,3.063 6.14,5.106 z m 5.117,9.203 c 0,14.297 11.246,16.351 15.332,16.351 4.086,0 15.328,-2.054 15.328,-16.351 0,-14.309 -11.242,-16.352 -15.328,-16.352 -4.086,0 -15.332,2.031 -15.332,16.352 z m 7.16,0 c 0,-9.203 4.086,-11.246 8.172,-11.246 3.074,0 8.192,2.043 8.192,11.246 0,8.172 -5.11,11.246 -8.192,11.246 -4.086,-0.012 -8.172,-3.074 -8.172,-11.246 z m 47.004,6.129 -12.258,-21.469 h -7.16 v 30.66 h 6.141 v -21.457 l 13.277,21.457 h 6.137 v -30.66 h -6.137 z M 929.902,462.008 c -8.172,9.195 -12.254,9.195 -10.214,17.363 h 18.386 c 3.074,-8.18 0,-13.277 -8.172,-17.363 z"
         style="fill:#ffffff;fill-opacity:1;fill-rule:evenodd;stroke:none"
         id="path31" /><path
         d="m 535.402,892.277 c 3.063,-6.129 9.192,-23.511 11.235,-29.629 -2.043,-6.136 -8.172,-11.246 -14.309,-11.246 3.063,-6.136 13.277,-15.328 12.266,-19.414 -3.063,-6.136 -8.18,-4.086 -18.403,-10.222 3.063,-7.153 12.266,-12.266 16.36,-12.266 6.129,-1.031 6.129,-10.227 16.351,-14.312 10.223,-6.125 20.45,-6.125 32.703,-6.125 17.383,1.019 61.321,13.277 50.086,67.449 26.575,55.191 120.602,-18.395 153.305,-18.395 -6.129,13.285 -13.289,24.531 -20.449,36.797 9.191,6.129 20.449,0 30.66,0 -10.223,29.641 -27.594,42.926 -42.926,54.16 15.332,49.067 71.547,29.633 121.621,23.512 -6.129,16.344 -26.566,19.418 -35.765,31.672 16.351,17.383 35.765,40.887 48.031,66.437 -22.48,-15.328 -68.48,-31.691 -84.832,-36.797 -29.637,-12.257 -90.969,-12.257 -120.59,0 5.109,11.247 17.375,17.383 26.567,24.543 -15.34,29.637 -46,12.254 -64.395,6.118 -15.332,12.277 -43.938,12.277 -51.098,6.136 0,0 0,-7.136 9.192,-15.328 5.105,-7.14 -18.395,-10.222 -25.543,-21.469 0,-10.222 13.277,0 19.414,-12.257 -15.32,-29.629 -78.692,-36.797 -69.481,-109.364 z m 42.918,-85.843 c 3.063,0 6.137,3.066 6.137,6.129 0,3.062 -3.066,6.128 -6.137,6.128 -3.066,0 -6.129,-3.066 -6.129,-6.128 0,-3.063 3.063,-6.129 6.129,-6.129 z m 386.34,95.046 c 2.031,-6.128 7.137,-23.511 12.254,-29.64 -5.105,-6.129 -10.223,-13.285 -15.328,-13.285 3.074,-6.129 13.297,-13.289 10.223,-18.395 -1.024,-5.109 -5.106,-4.086 -15.332,-10.226 2.054,-7.149 10.226,-11.243 15.332,-13.286 6.136,0 6.136,-8.179 15.328,-14.32 10.226,-4.074 22.492,-4.074 33.746,-6.129 16.34,3.067 62.332,15.332 50.055,69.504 26.578,53.141 121.632,-19.426 154.343,-19.426 -6.136,12.266 -15.328,25.555 -21.465,36.797 9.192,6.141 21.465,0 31.692,0 -10.227,29.641 -28.629,42.93 -42.938,55.196 14.309,47.011 70.524,29.628 120.598,23.511 -5.105,16.36 -26.555,17.364 -36.777,30.66 18.394,18.395 36.777,41.895 49.054,66.418 -22.488,-14.308 -69.5,-30.64 -83.82,-36.781 -31.672,-11.242 -91.973,-11.242 -122.633,0 5.106,12.258 18.395,18.395 27.606,23.504 -16.36,31.691 -46,13.277 -63.383,8.168 -16.34,11.246 -44.969,11.246 -52.129,5.109 0,0 0,-8.171 9.211,-14.308 6.121,-9.196 -17.383,-10.227 -25.551,-22.481 0,-11.246 12.254,0 19.414,-11.246 -16.359,-31.672 -77.691,-37.789 -69.5,-109.344 z m 41.895,-85.843 c 4.105,0 5.105,1.019 5.105,6.129 0,3.062 -1.012,5.105 -5.105,5.105 -3.055,0 -6.117,-2.043 -6.117,-5.105 0,-5.11 3.05,-6.129 6.117,-6.129 z m -248.348,390.414 c 3.055,-6.137 9.191,-23.5 13.277,-29.637 -4.086,-6.141 -10.222,-13.277 -15.332,-13.277 2.043,-6.141 12.266,-13.301 11.246,-17.383 -3.062,-6.141 -6.136,-5.109 -18.402,-11.246 5.106,-7.141 12.266,-11.246 18.402,-13.278 5.106,0 5.106,-8.171 14.309,-14.308 10.223,-4.086 22.488,-4.086 33.734,-6.141 16.352,2.055 60.289,15.332 49.055,69.504 26.567,53.141 122.641,-19.418 155.356,-19.418 -6.137,12.278 -15.332,25.555 -21.469,37.813 9.191,5.125 21.469,0 29.64,0 -8.171,28.625 -26.554,40.883 -40.886,54.16 14.332,47.023 70.523,29.66 120.601,23.523 -5.105,16.36 -26.554,17.364 -36.8,29.637 18.414,19.418 36.8,42.918 49.078,67.449 -22.493,-14.308 -69.504,-30.64 -83.821,-36.777 -31.675,-11.246 -91.972,-11.246 -122.632,0 5.105,12.254 17.371,18.394 27.593,23.5 -16.351,31.691 -45.988,13.277 -65.414,6.137 -14.308,13.296 -41.898,13.296 -51.097,7.14 0,0 0,-8.172 10.222,-14.308 6.129,-9.192 -17.375,-10.223 -25.554,-22.481 0,-11.242 12.265,0 19.417,-11.242 -16.363,-31.691 -79.726,-36.789 -70.523,-109.367 z m 43.938,-85.852 c 2.043,0 5.117,1.02 5.117,6.137 0,1.023 -3.074,4.086 -5.117,4.086 -4.086,0 -7.149,-3.055 -7.149,-4.086 0,-5.106 3.063,-6.137 7.149,-6.137 z"
         style="fill:#cf4037;fill-opacity:1;fill-rule:evenodd;stroke:none"
         id="path33" /><path
         d="m 314.629,1119.176 c 3.066,-13.278 13.289,-23.5 25.547,-25.551 22.488,-5.109 40.883,-31.672 62.351,-34.746 35.766,-4.086 61.321,29.637 56.203,48.043 -9.191,17.363 -53.148,37.808 -40.882,56.215 24.531,35.758 42.925,55.172 45.988,87.883 2.043,18.394 -32.703,22.492 -32.703,41.918 25.555,40.863 224.847,275.933 389.406,340.339 3.063,-16.363 1.02,-29.64 39.863,-33.746 35.766,-2.031 99.141,-2.031 135.918,-4.086 44.969,-2.05 39.864,39.864 56.215,33.727 166.602,-62.332 351.594,-277.988 387.363,-342.375 0,-11.242 -17.382,-20.445 -24.523,-28.606 -9.191,-9.211 -3.074,-34.765 1.02,-43.968 13.277,-26.555 27.585,-40.864 42.918,-72.555 -13.278,-23.523 -27.586,-21.469 -39.864,-37.832 -10.222,-27.586 36.781,-67.449 65.418,-50.074 21.469,9.211 33.723,21.468 56.196,33.742 27.605,15.332 22.488,41.898 14.328,65.418 -11.246,30.66 -32.715,59.277 -46,95.047 -9.215,25.551 11.242,23.5 14.308,32.691 13.278,9.192 15.328,25.555 -2.054,52.129 -86.864,141.027 -262.657,316.82 -432.313,388.375 -15.328,6.137 -25.551,12.274 -57.242,6.137 -23.504,-5.106 -17.363,-35.778 -28.61,-46 -4.085,-10.223 -147.175,-4.086 -155.343,7.16 -5.117,20.426 -17.375,47 -41.907,39.859 -171.707,-43.965 -439.492,-348.527 -466.066,-400.648 -9.191,-20.445 5.106,-48.043 24.531,-63.383 2.043,-7.141 -10.222,-26.555 -11.242,-34.746 -13.269,-31.66 -48.023,-73.566 -38.824,-110.367 z"
         style="fill:#cf4037;fill-opacity:1;fill-rule:evenodd;stroke:none"
         id="path35" /><path
         d="m 1457.27,1064.004 c -10.223,2.031 -34.747,22.48 -22.481,33.723 26.555,4.086 12.258,-25.551 24.524,-28.625 18.394,0 13.277,19.414 28.609,12.273 7.176,-12.285 -22.461,-19.422 -30.652,-17.371 z m 21.476,39.844 -12.273,-13.278 c -5.11,5.106 -14.309,13.278 -18.395,18.395 4.086,9.191 11.246,16.359 19.414,21.469 6.141,-0.012 9.203,-20.457 11.254,-26.586 z m 68.473,15.328 c 5.105,-11.223 -32.696,-37.809 -48.035,-36.778 0,13.278 -5.106,22.481 -15.329,43.95 -15.332,35.777 -43.949,63.363 -55.195,98.109 -2.051,6.137 -6.137,13.297 0,19.414 22.481,-15.308 44.973,-17.363 64.387,6.137 5.105,-4.082 7.141,-16.36 10.223,-23.5 13.277,-28.625 43.949,-67.477 43.949,-107.332 z m -94.024,126.738 c -3.054,0 -13.277,7.16 -15.332,9.191 0,5.11 6.137,9.196 10.223,13.297 7.16,-4.093 9.184,-15.328 5.109,-22.488 z m 65.407,63.363 c 3.054,-19.414 -10.223,-24.523 -20.45,-33.722 -9.191,-9.192 -19.414,-15.332 -27.586,-24.524 -4.105,17.383 0,17.383 -14.328,33.723 -86.863,132.879 -251.41,288.23 -377.129,346.48 -28.605,15.329 -46,18.395 -69.5,16.36 0,5.109 6.137,15.332 7.141,20.449 6.137,17.363 -3.055,62.332 56.211,48.031 0,0 117.547,-43.949 250.402,-166.597 159.461,-148.207 195.239,-240.2 195.239,-240.2 z m -493.645,316.84 c -3.074,-2.035 -8.187,3.055 -11.242,5.106 2.051,2.054 9.191,5.109 17.363,3.054 0,-6.109 -6.121,-6.109 -6.121,-8.16 z m -30.66,8.172 c -2.051,-13.277 17.363,-13.277 22.48,-19.418 10.223,-16.34 -148.187,-8.172 -167.609,-2.031 -2.043,6.117 20.445,12.254 17.371,30.66 -2.043,9.191 -10.223,17.363 -8.172,28.609 60.301,-10.226 98.11,-10.226 144.102,-4.086 3.054,-7.16 -12.258,-22.492 -8.172,-33.734 z m -141.055,-3.066 c -4.086,0 -11.234,-5.106 -15.332,-5.106 -2.031,2.051 -4.074,4.086 -4.074,8.172 4.074,4.106 21.457,6.137 19.406,-3.066 z M 395.375,1253.074 c -18.391,15.328 -58.254,39.864 -38.84,82.778 41.906,69.503 310.699,352.617 441.535,379.171 17.371,6.141 33.723,-6.136 37.809,-31.671 4.086,-25.555 12.266,-18.414 13.289,-33.743 -115.496,5.118 -431.313,-317.839 -453.793,-396.535 z m 41.906,13.289 c -6.136,-6.14 -16.351,-22.492 -26.574,-20.449 0,11.246 4.086,25.555 13.289,35.777 4.082,-4.086 9.192,-10.222 13.285,-15.328 z m -61.328,-179.89 c -9.203,4.086 -19.426,17.363 -30.672,19.418 -50.078,9.191 2.051,75.629 30.672,147.183 18.391,-20.445 30.66,-17.383 45.988,-15.332 7.149,3.055 22.493,19.418 30.661,16.344 3.066,-7.141 -17.383,-42.918 -23.512,-52.109 -16.34,-23.512 -40.863,-63.364 -53.137,-115.504 z m 39.871,7.152 c -4.097,4.102 -15.34,14.328 -18.406,19.434 3.066,10.203 5.117,16.343 11.246,27.586 l 26.574,-21.469 c -6.136,-7.149 -13.297,-13.285 -19.414,-25.551 z m -3.074,-24.535 c -11.246,1.023 -23.512,10.226 -17.383,26.578 10.215,-6.141 19.414,-20.449 28.617,-17.363 4.086,6.117 -2.043,11.222 15.332,29.636 4.086,0 7.149,-2.05 9.192,-4.105 -2.035,-19.414 -27.586,-32.691 -35.758,-34.746 z"
         style="fill:#ffffff;fill-opacity:1;fill-rule:evenodd;stroke:none"
         id="path37" /><path
         d="m 391.281,1337.906 c 3.063,-2.054 4.086,-2.054 6.129,-1.023 l 2.043,1.023 1.02,-1.023 c -1.02,-3.07 -4.086,-5.106 -6.129,-8.188 -1.008,-3.054 -4.082,-6.121 -6.125,-10.207 -2.055,-1.019 -3.067,1.012 -3.067,1.012 l 2.043,3.074 c 1.024,3.055 1.024,4.086 -2.043,6.121 l -4.093,3.075 c -4.086,2.031 -5.106,2.031 -7.149,-1.024 -2.043,-3.055 -4.086,-5.105 -4.086,-10.223 0,-6.136 3.063,-12.257 11.235,-18.394 10.222,-8.172 21.468,-9.191 28.617,1.012 4.086,5.125 4.086,11.246 0,18.414 0,0 1.023,2.05 1.023,1.019 3.063,-3.074 8.168,-6.136 9.199,-7.156 -1.019,-2.035 -2.043,-7.141 -6.136,-13.281 -5.106,-6.137 -9.192,-10.223 -14.309,-11.242 -9.203,-6.141 -19.418,-4.086 -26.574,2.05 -9.195,6.141 -12.266,15.332 -10.227,25.555 2.043,5.105 3.067,9.191 6.129,13.277 3.067,4.086 7.16,8.172 10.223,11.246 2.043,0 3.066,2.032 4.086,2.032 1.023,1.023 2.043,0 2.043,-1.02 -1.02,-1.012 0,-1.012 3.066,-4.086 z m 8.18,16.34 c -6.125,5.109 -6.125,5.109 -9.199,3.074 l -2.035,-2.05 -2.051,2.05 c 2.051,3.055 5.105,5.11 7.16,8.172 3.051,3.074 5.094,6.137 7.148,9.192 2.043,0 3.063,-1.02 3.063,-2.051 l -1.02,-1.012 c -2.043,-3.055 -2.043,-4.086 3.055,-9.191 l 8.18,-5.11 c 0,-2.05 0,-2.05 3.062,0 0,2.035 1.024,3.055 0,5.11 l -6.125,12.254 c -1.023,6.14 -1.023,11.246 3.063,17.382 3.062,1.024 4.086,3.055 5.105,4.086 1.024,0 2.043,-2.031 2.043,-2.031 -1.019,-1.023 -2.043,-2.055 -2.043,-5.129 0,-5.105 3.067,-11.222 7.153,-21.445 1.019,-1.024 1.019,-2.055 2.043,-2.055 3.062,3.074 8.167,4.106 13.285,0 4.093,-3.054 5.105,-8.172 4.093,-12.258 0,-4.101 -3.062,-8.187 -7.156,-13.296 -4.086,-6.137 -9.203,-10.223 -12.265,-14.309 -1.024,0 -3.067,1.023 -3.067,2.055 l 1.024,1.011 c 2.043,3.075 2.043,3.075 -4.086,8.188 z m 31.684,-12.254 c 2.043,-2.054 3.062,-2.054 5.105,0 4.086,4.086 2.043,11.242 -3.062,15.328 -3.055,3.055 -6.129,3.055 -7.149,3.055 -3.066,0 -4.086,-1.02 -6.129,-3.055 -3.066,-3.074 -3.066,-4.086 -1.023,-6.136 z m 14.308,58.246 c 2.043,2.051 2.043,3.075 1.012,4.086 l -3.063,5.106 c -1.011,3.074 -2.043,5.109 -3.066,5.109 h -2.031 l -2.043,-3.055 c -1.024,0 -2.043,1.02 -2.043,3.055 2.043,2.051 4.086,4.106 7.148,7.156 2.043,3.055 4.094,6.141 7.149,9.196 0,0 2.043,-1.024 2.043,-2.055 l -2.043,-2.031 c -1.012,-3.055 0,-5.11 2.043,-9.192 l 16.351,-26.566 c 3.067,-5.109 4.086,-8.192 5.11,-10.223 1.011,-1.023 1.011,-1.023 0,-2.054 0,0 -5.11,0 -7.161,-2.032 -2.043,1.02 -5.105,2.032 -9.191,4.086 l -18.395,7.156 c -6.14,2.036 -9.203,4.086 -13.289,4.086 -2.043,1.024 -4.086,0 -5.105,-1.019 l -2.043,-2.055 c -1.012,0 -3.066,2.055 -2.043,3.074 l 5.117,5.11 c 2.043,3.054 4.086,5.105 6.129,8.168 1.02,0 2.039,-2.031 2.039,-2.031 l -1.019,-3.075 c -1.02,-1.019 -1.02,-2.031 -1.02,-2.031 1.02,-1.023 1.02,-1.023 2.039,-1.023 l 9.203,-4.086 c 1.024,-1.02 1.024,-1.02 3.055,1.023 z m -2.051,-8.172 c 0,-1.019 -1.011,-1.019 1.02,-2.05 l 6.129,-2.036 c 3.074,-2.05 7.148,-3.07 7.148,-4.101 0,2.051 -1.019,5.105 -3.062,8.187 l -4.086,5.11 c 0,2.031 -1.024,1.019 -2.043,0 z m 62.352,54.172 c 4.094,-4.086 9.199,-7.16 11.242,-8.172 1.031,-1.019 2.055,0 4.086,1.012 l 1.023,1.024 c 2.043,0 2.043,-2.036 2.043,-2.036 -2.043,-3.07 -3.066,-4.082 -6.128,-6.136 -2.055,-2.051 -4.098,-5.106 -6.137,-7.16 -2.043,0 -2.043,1.023 -2.043,2.054 v 1.02 c 2.043,2.035 3.062,3.054 2.043,4.086 -1.024,3.054 -5.11,7.14 -9.203,12.258 l -7.149,7.16 c -1.023,1.019 -2.043,1.019 -3.074,2.031 1.02,-3.055 1.02,-6.117 1.02,-11.227 l 1.023,-10.222 c 1.02,-10.223 1.02,-17.383 3.063,-20.446 -1.024,-1.023 -3.063,-3.074 -4.086,-5.109 -3.063,-3.055 -5.118,-5.105 -7.149,-7.156 -1.023,-1.012 -2.043,1.019 -3.074,1.019 l 2.051,2.051 c 1.023,2.035 1.023,4.086 1.023,5.109 0,2.032 -1.023,2.032 -4.098,4.086 l -13.285,14.309 c -5.109,5.105 -9.191,8.191 -11.246,9.191 -1.019,0 -3.062,0 -5.105,-1.011 l -1.024,-1.02 -2.043,2.031 c 2.043,3.075 5.11,4.086 7.153,6.137 1.019,2.055 3.062,4.086 6.125,7.16 l 2.043,-2.051 -1.02,-2.054 c -1.023,-1.012 -2.031,-3.055 -2.031,-4.086 1.008,-2.031 5.105,-6.117 9.191,-11.242 l 10.211,-10.203 c 3.067,-2.055 4.098,-3.075 4.098,-3.075 1.019,2.051 0,6.137 -1.024,13.278 l -3.062,26.574 c 0,6.137 -1.012,11.246 -1.012,11.246 1.012,1.02 3.055,2.051 4.086,2.051 2.043,-2.051 5.106,-5.125 9.203,-9.211 z m 1.019,27.586 c -5.105,5.129 -6.128,5.129 -9.191,4.106 l -2.043,-2.051 -1.019,2.051 c 3.062,3.054 6.125,5.109 9.191,8.172 1.019,2.05 3.062,5.105 6.137,7.16 5.105,6.117 11.234,9.191 17.375,11.222 8.179,3.075 17.371,0 25.55,-7.136 6.129,-7.16 9.196,-16.364 3.055,-27.606 -2.043,-4.086 -6.129,-8.172 -10.223,-13.281 -6.128,-6.137 -10.214,-10.223 -15.332,-13.277 -1.019,-1.02 -2.039,1.011 -2.039,1.011 l 1.02,1.024 c 2.043,3.074 1.019,4.086 -3.063,9.191 z m 28.629,-14.308 c 2.032,-1.012 3.063,-2.032 4.086,-3.055 1.02,0 2.043,1.023 3.063,2.055 10.222,10.222 10.222,20.445 0,31.672 -7.149,7.16 -18.403,12.277 -27.598,3.074 -2.043,-2.055 -3.062,-4.086 -3.062,-6.141 0,-3.07 1.019,-4.082 5.105,-7.156 z m 43.938,39.863 c 2.043,-2.031 2.043,-2.031 3.062,-1.012 l 5.11,5.09 c 3.062,2.051 3.062,4.102 3.062,7.156 0,1.024 0,3.075 -1.019,5.11 1.019,2.05 1.019,3.074 2.043,3.074 3.062,-5.109 7.148,-9.215 7.148,-10.227 0,-1.019 -3.062,-3.074 -8.172,-7.156 l -11.242,-10.226 c -3.066,-3.055 -6.141,-5.106 -9.203,-8.168 0,0 -1.012,1.011 -1.012,3.054 l 1.012,1.02 c 2.043,3.054 2.043,3.054 -3.066,8.172 l -18.395,21.468 c -4.082,5.106 -6.125,5.106 -8.168,3.055 l -2.043,-1.012 c -2.043,0 -3.066,1.012 -3.066,2.032 4.086,4.105 7.152,5.105 10.214,8.171 l 7.161,7.161 c 5.105,3.05 9.191,9.191 13.277,11.242 2.051,-1.02 7.148,-4.086 10.223,-7.16 0,-1.02 0,-2.051 -1.02,-2.051 -9.203,4.105 -11.246,2.051 -16.351,-2.031 -4.086,-3.055 -5.11,-5.11 -4.086,-7.161 0,-1.011 1.019,-4.066 4.086,-7.14 l 5.105,-6.137 c 2.043,-1.023 2.043,-1.023 3.063,0 l 4.085,3.074 c 3.067,3.051 3.067,4.082 2.043,7.137 l -1.011,2.055 c -1.02,1.011 1.011,3.054 1.011,2.031 3.075,-2.031 4.098,-4.086 6.141,-6.117 2.039,-2.055 4.082,-5.106 5.106,-6.137 0,-1.023 -1.024,-2.055 -3.067,-2.055 v 1.024 c -3.062,2.051 -5.105,2.051 -7.148,-1.024 l -4.086,-2.031 c -2.032,-2.055 -1.012,-3.074 0,-4.105 z m 30.66,68.492 c 5.105,-6.141 4.086,-13.301 1.012,-17.383 L 610,1545.379 c -2.043,-5.106 -2.043,-9.191 0,-12.254 2.043,-2.055 6.129,-4.105 9.191,0 5.11,3.055 3.067,9.191 3.067,13.277 0,1.02 2.043,2.051 2.043,2.051 3.062,-3.074 5.105,-8.191 6.137,-9.211 0,-1.023 -1.02,-1.023 -2.051,-3.054 -1.024,-2.032 -4.086,-4.086 -6.129,-5.106 -8.18,-7.141 -17.383,-7.141 -22.492,0 -4.082,5.106 -3.063,12.273 -1.02,18.395 2.051,4.101 4.086,10.222 0,15.328 -2.043,3.074 -6.129,4.086 -11.246,0 -4.086,-3.055 -4.086,-12.254 -2.031,-17.364 0,0 -1.024,-2.05 -2.055,-1.019 -4.082,4.086 -7.148,8.168 -7.148,11.242 1.023,2.035 3.066,7.141 8.172,10.227 9.21,8.14 19.433,8.14 25.562,-0.02 z m 52.129,-3.086 c -7.16,-5.105 -13.289,-8.172 -21.469,-7.14 -7.14,0 -13.285,2.035 -19.414,10.226 -5.117,7.137 -6.129,15.328 -4.086,21.465 2.043,7.141 7.149,13.281 12.266,18.394 4.094,4.086 11.234,5.11 14.308,6.141 2.043,-1.023 6.137,-4.105 10.223,-8.191 0,-1.02 -1.019,-2.032 -2.031,-3.055 -4.098,4.086 -12.266,7.141 -19.426,1.023 -7.148,-5.109 -10.223,-17.382 -1.023,-29.66 9.195,-11.226 21.468,-12.258 28.621,-7.14 6.125,4.086 7.148,10.222 4.086,17.363 0,1.023 2.039,2.055 3.062,1.023 2.043,-3.054 5.106,-8.171 6.129,-9.195 -2.055,-2.051 -5.109,-7.168 -11.246,-11.254 z m 4.086,41.914 c -6.129,7.16 -7.16,13.281 -6.129,17.383 2.043,6.121 6.129,10.207 10.215,13.281 5.105,3.051 11.246,4.082 16.351,3.051 5.106,-2.031 10.223,-6.137 14.317,-12.254 l 5.109,-7.16 c 3.063,-5.105 6.129,-9.191 8.172,-11.246 2.039,-1.012 3.063,-1.012 5.105,0 l 1.012,1.023 c 1.02,-1.023 2.043,-2.035 1.02,-2.035 -2.043,-2.051 -4.086,-3.074 -6.125,-6.137 -3.067,0 -5.117,-3.074 -9.203,-5.105 l -1.024,2.031 1.024,2.055 c 2.043,1.019 3.062,3.055 3.062,4.082 0,3.074 -4.086,7.16 -8.172,12.277 l -4.094,8.172 c -6.128,8.172 -13.289,14.309 -21.468,8.172 -9.192,-6.121 -5.106,-15.332 0,-22.48 l 10.222,-14.309 c 3.067,-6.141 4.086,-6.141 7.161,-5.109 l 2.043,1.011 c 1.023,0 2.042,-2.031 1.023,-2.031 -2.043,-3.074 -5.109,-4.086 -9.203,-6.137 -3.067,-3.054 -6.129,-5.109 -9.192,-6.14 l -1.023,1.023 1.023,2.051 c 3.063,2.035 3.063,3.055 -1.023,9.191 z m 94.023,48.028 c 4.086,-5.11 6.137,-11.227 9.203,-12.258 0,-1.024 2.043,-1.024 3.063,0 l 2.043,1.019 c 1.012,-1.019 1.012,-2.05 1.012,-3.074 -3.055,-1.019 -5.106,-3.051 -7.149,-4.082 -2.043,-2.055 -5.105,-3.055 -9.203,-4.086 -1.012,0 -1.012,1.02 -1.012,2.031 h 1.012 c 2.043,2.055 3.066,3.075 3.066,5.11 0,2.051 -3.066,7.156 -5.109,12.273 l -5.117,9.192 c -2.031,2.054 -2.031,3.054 -2.031,3.054 0,-2.031 -2.043,-6.117 -3.063,-11.222 l -2.043,-9.196 c -1.023,-10.222 -3.055,-17.383 -2.043,-21.465 -2.043,0 -3.066,-2.054 -5.109,-3.074 -3.063,-2.035 -7.149,-3.054 -9.199,-5.09 -2.043,0 -2.043,1.012 -2.043,3.055 h 2.043 c 1.019,2.035 2.043,3.055 2.043,5.109 0,1.02 -1.024,2.051 -2.043,6.137 l -10.227,17.363 c -3.055,5.106 -6.125,9.192 -8.168,11.243 -1.012,1.023 -2.043,0 -4.086,0 h -1.023 c -1.02,0 -2.043,1.023 -2.043,2.035 3.066,2.051 6.14,2.051 8.172,4.105 2.043,1.012 5.117,3.055 8.179,5.106 1.012,-1.02 1.012,-2.051 1.012,-3.074 l -1.012,-1.02 c -2.043,-1.012 -3.062,-3.055 -3.062,-4.086 1.019,-2.035 3.062,-8.172 6.129,-13.277 l 7.16,-12.278 c 1.019,-2.031 2.043,-4.086 3.062,-4.086 0,2.055 1.02,5.11 2.043,12.278 l 5.106,27.586 c 1.023,5.105 1.023,11.246 1.023,11.246 h 5.106 c 1.023,-3.055 4.093,-6.141 6.129,-11.246 z m 21.469,30.668 c -3.062,7.16 -4.086,7.16 -8.18,7.16 l -3.066,-2.055 c -1.02,0 -1.02,2.055 -1.02,2.055 5.106,3.054 9.204,4.086 12.266,6.117 3.063,1.023 6.137,3.074 11.246,5.109 v -3.054 l -2.035,-1.024 c -3.063,-2.031 -3.063,-2.031 0,-9.191 l 14.309,-30.66 c 1.023,-2.036 1.023,-2.036 2.043,-1.024 l 5.109,2.055 c 5.105,3.055 5.105,6.137 4.086,11.242 0,0 2.039,1.023 2.039,0 2.043,-3.051 5.117,-8.187 6.141,-10.223 v -1.019 h -1.032 c -2.043,0 -2.043,0 -7.16,-3.055 l -25.543,-11.246 c -5.117,-3.055 -5.117,-3.055 -5.117,-4.086 -1.023,0 0,0 -1.023,-1.019 h -1.02 c -2.043,2.05 -4.086,7.16 -8.18,10.222 0,1.024 1.02,3.055 3.075,3.055 4.085,-4.086 6.125,-6.117 11.242,-4.086 l 5.109,2.055 c 1.02,1.019 1.02,1.019 1.02,2.031 z m 300.477,-5.118 c 2.054,-1.019 3.074,-1.019 4.105,0 l 5.086,5.11 c 2.055,3.074 4.105,4.086 4.105,5.105 0,0 0,1.02 -2.05,2.051 l -2.055,2.035 c -1.012,0 0,1.02 2.055,2.051 3.054,-2.051 6.136,-3.074 9.191,-5.106 4.086,-1.023 8.192,-3.054 11.246,-4.085 v -3.075 l -4.086,1.024 c -3.074,0 -4.086,-1.024 -8.191,-5.11 l -22.481,-23.5 c -5.105,-5.105 -6.136,-7.16 -8.187,-9.191 -1.012,-1.023 -1.012,-1.023 -2.035,-1.023 0,0 -2.032,4.085 -4.086,7.16 0,3.054 0,6.117 1.023,11.226 l 1.02,20.446 v 14.308 c 0,3.074 0,4.086 -2.051,6.141 l -3.074,1.019 c 0,1.02 1.019,2.032 2.051,3.055 3.074,-1.023 5.109,-3.055 8.171,-4.086 4.106,-2.051 6.137,-3.055 9.211,-3.055 0,-1.019 -1.019,-3.074 -1.019,-3.074 h -6.129 c 0,0 -1.024,-1.019 -1.024,-3.055 v -9.191 c -1.019,-2.051 -1.019,-2.051 1.024,-3.074 z m -8.172,-1.019 c -2.051,1.019 -2.051,1.019 -3.074,-1.012 l -1.008,-6.137 v -10.226 c 2.031,1.023 3.05,4.086 6.136,6.14 l 5.106,6.118 c 1.012,1.019 1.012,2.05 -1.02,3.074 z m 31.691,-14.309 c 4.086,9.192 8.172,13.297 13.281,14.309 6.137,1.019 12.254,0 17.364,-2.035 5.125,-3.075 9.211,-9.192 11.242,-14.309 1.023,-6.137 -1.012,-12.273 -5.106,-19.414 l -4.086,-7.16 c -2.05,-7.16 -5.105,-13.277 -5.105,-14.309 0,-2.051 1.02,-3.074 3.055,-5.105 l 1.019,-1.024 -1.019,-2.031 c -3.055,1.012 -5.11,3.055 -8.172,4.086 -3.055,1.012 -6.141,3.055 -10.223,4.082 0,1.024 0,3.055 1.02,3.055 h 3.054 c 2.051,-1.012 3.075,-2.031 5.106,0 1.023,1.023 4.086,6.14 7.16,12.277 l 5.105,9.192 c 5.11,10.222 6.141,18.394 -3.07,23.503 -11.226,6.137 -17.363,-3.054 -20.43,-11.246 l -9.21,-16.343 c -4.086,-7.157 -3.055,-8.188 0,-10.223 l 1.019,-2.051 c 1.023,0 0,-1.023 0,-2.035 -4.082,2.035 -8.168,5.109 -11.242,6.121 -3.43,2.32 -7.223,4.047 -11.227,5.106 0,0 0,3.074 2.035,3.074 l 2.051,-1.024 c 3.055,-1.019 4.086,-1.019 7.141,6.141 z m 56.195,-71.547 c -7.136,5.129 -13.277,11.246 -15.308,19.438 -2.055,6.117 -2.055,14.308 3.055,22.48 5.105,9.192 13.277,12.274 19.414,12.274 8.171,1.023 16.363,-1.02 22.48,-5.106 6.137,-3.074 9.211,-9.191 12.277,-12.277 0,-2.031 -1.023,-7.141 -4.086,-12.254 -1.023,0 -2.054,1.012 -3.074,1.012 1.02,6.136 1.02,14.328 -8.172,19.433 -7.14,6.118 -20.445,3.055 -28.609,-11.246 -8.187,-13.277 -5.105,-24.519 3.055,-29.636 7.16,-4.106 14.308,-4.106 19.418,2.031 1.019,0 3.074,-1.012 2.05,-3.055 -3.054,-3.074 -7.16,-9.191 -7.16,-10.223 -2.043,1.012 -9.199,3.063 -15.34,7.129 z m 59.282,11.246 c 5.105,6.137 5.105,7.161 2.05,10.223 l -3.054,2.055 c 0,1.019 0,2.031 3.054,2.031 3.055,-3.055 7.161,-6.117 9.192,-8.172 3.074,-2.031 7.16,-4.086 11.246,-7.137 0,-2.054 -1.023,-2.054 -2.055,-2.054 l -3.05,1.023 c -3.055,2.031 -4.086,2.031 -8.172,-4.086 l -21.469,-28.629 c -2.055,-2.031 -1.024,-3.054 0,-4.086 l 4.086,-2.031 c 5.105,-5.109 7.16,-2.055 13.277,1.012 0,1.019 1.02,-1.012 1.02,-1.012 -3.055,-4.105 -6.137,-10.222 -7.137,-12.277 0,0 -1.023,0 -1.023,1.023 h -1.02 c 0,2.032 0,3.051 -4.086,6.137 l -24.523,18.395 c -5.106,3.054 -6.137,3.054 -6.137,2.031 -1.024,0 -1.024,0 -1.024,1.023 -1.011,0 -1.011,0 -1.011,1.02 1.011,3.054 4.086,6.14 6.121,12.258 1.019,1.019 2.051,-1.012 3.07,-1.012 -2.051,-6.137 -2.051,-10.223 1.012,-14.309 l 5.109,-3.074 c 1.02,-1.023 2.051,0 3.074,1.02 z m 36.797,-35.777 c 2.05,-2.031 3.074,-2.031 3.074,-2.031 l 6.117,5.105 c 3.074,1.02 5.109,2.032 5.109,3.055 l -1.011,2.051 -1.024,2.035 c -1.019,1.019 0,2.051 2.035,3.074 2.051,-3.074 4.102,-5.109 7.157,-8.191 4.086,-2.035 8.171,-4.086 10.226,-7.141 0,-1.019 0,-3.055 -1.023,-2.051 l -3.055,1.02 c -3.074,1.023 -4.105,1.023 -9.191,-2.031 l -28.629,-18.414 c -3.399,-1.926 -6.496,-4.336 -9.192,-7.161 h -3.054 c 0,0 1.011,5.125 -2.051,8.192 2.051,2.051 2.051,6.137 4.086,10.222 l 6.137,20.446 c 3.054,6.14 3.054,10.226 4.085,13.277 1.032,3.055 0,5.11 -1.023,6.141 l -2.031,2.051 c 0,1.011 1.019,2.035 2.031,3.054 3.074,-3.054 4.086,-5.105 6.141,-7.16 3.07,-1.019 6.136,-3.055 8.187,-4.086 0,-2.051 0,-3.051 -1.019,-3.051 h -2.055 l -3.051,2.051 c -1.023,-1.039 -2.055,-2.051 -2.055,-3.074 l -3.054,-9.191 c -1.02,-2.055 -1.02,-2.055 0,-3.075 z m -8.172,1.031 c -2.051,0 -3.075,1.024 -3.075,-1.019 l -3.054,-5.09 c -1.02,-5.105 -2.051,-8.191 -3.074,-10.223 2.054,1.012 5.128,3.055 8.191,5.106 l 6.141,4.086 c 1.019,1.023 1.019,1.023 0,2.035 z m 39.863,-60.308 c -5.105,-5.11 -5.105,-6.137 -3.055,-9.192 l 1.012,-1.023 c 0,-2.031 0,-3.055 -1.012,-3.055 -3.074,4.086 -5.125,7.141 -8.191,9.192 -3.055,3.074 -6.137,5.109 -10.223,8.191 0,1.012 2.055,2.035 2.055,1.012 h 2.031 c 3.074,-3.055 4.106,-3.055 9.192,3.074 l 21.468,22.48 c 4.086,4.086 5.106,5.106 3.055,8.192 l -2.031,3.055 c 0,1.019 1.019,1.019 3.054,2.05 3.071,-4.105 5.106,-7.16 8.188,-10.222 l 7.141,-7.16 c 5.105,-4.086 11.246,-10.223 14.308,-12.258 -1.012,-3.075 -4.086,-9.211 -7.14,-12.274 -1.02,0 -2.051,1.02 -2.051,1.02 3.074,11.246 1.019,12.277 -4.086,17.363 -4.086,5.109 -5.106,5.109 -7.16,5.109 -2.032,0 -4.086,-2.035 -6.118,-5.109 z m 56.215,-23.5 c 2.031,-2.055 2.031,-2.055 3.055,-2.055 l 8.171,3.074 4.082,2.051 c 1.024,1.012 1.024,2.035 0,3.055 l -2.031,2.035 c 0,1.019 1.02,2.051 3.055,3.074 2.051,-4.086 4.105,-6.14 7.16,-9.195 3.055,-3.07 6.137,-6.137 8.168,-9.192 0,-1.019 -1.02,-2.05 -2.031,-2.05 l -2.051,2.05 c -3.055,1.012 -5.109,1.012 -9.195,-1.019 l -31.692,-13.297 c -5.105,-2.035 -8.168,-3.055 -10.222,-5.109 -1.012,0 -2.032,0 -3.055,1.023 0,0 1.023,5.106 0,8.191 1.023,2.032 3.055,5.086 5.109,9.192 l 9.192,19.414 c 3.054,5.109 6.136,9.191 7.16,11.246 1.008,4.086 1.008,6.117 -1.024,6.117 l -1.019,3.074 c 0,1.024 1.019,2.036 2.051,3.055 3.054,-4.086 4.086,-6.137 6.117,-8.172 2.055,-2.051 4.105,-4.086 7.16,-6.136 0,-1.024 -2.051,-3.075 -3.055,-3.075 l -2.05,2.051 c -1.024,1.024 -2.055,2.055 -2.055,1.024 -1.012,0 -2.031,0 -2.031,-2.055 l -5.106,-8.168 c -1.023,-2.055 -1.023,-2.055 0,-3.055 z m -8.18,3.082 c -1.023,1.012 -1.023,1.012 -3.055,-1.024 l -3.074,-5.105 c -1.011,-3.074 -4.086,-7.16 -4.086,-9.211 1.02,0 5.106,3.074 8.192,4.105 l 6.117,3.055 c 2.051,0 2.051,1.02 0,2.051 z m 38.828,-24.551 c 6.141,4.105 6.141,5.105 5.11,8.188 l -2.036,2.035 c 0,1.019 1.024,2.05 3.055,2.05 3.055,-3.074 5.11,-6.136 7.16,-9.191 2.153,-2.297 4.543,-4.355 7.141,-6.137 3.074,-4.086 6.137,-8.191 8.191,-14.308 2.032,-5.11 1.02,-10.227 -4.105,-16.364 -7.141,-4.085 -12.258,-3.054 -18.395,1.024 h -1.023 c 0,0 0,-1.024 1.023,-1.024 0,-3.054 2.051,-8.171 -3.054,-13.277 -3.075,-4.086 -7.16,-4.086 -11.246,-3.074 -4.086,2.055 -8.172,5.105 -14.309,10.223 -4.086,6.14 -7.16,11.246 -12.277,16.363 0,1.019 2.054,2.051 3.074,2.051 l 1.023,-1.02 c 2.032,-3.074 3.055,-2.055 10.223,3.055 z m -17.363,-30.641 c -3.051,-3.074 -3.051,-3.074 -1.02,-6.14 4.086,-4.086 9.192,-5.106 14.309,-1.02 4.086,4.086 5.106,8.172 2.051,13.278 -3.07,4.086 -3.07,4.086 -6.137,2.05 z m 16.352,14.309 c -2.051,-3.074 -2.051,-3.074 1.011,-6.141 4.106,-5.105 11.246,-5.105 16.364,0 5.105,3.055 7.16,9.196 3.054,13.278 -4.086,5.109 -8.172,3.074 -13.277,-1.02 z m 16.343,-63.383 c -10.222,13.297 -7.14,29.637 5.106,39.86 14.308,9.214 29.64,6.14 39.863,-6.118 10.223,-14.328 8.191,-30.66 -6.117,-40.882 -13.297,-10.223 -29.66,-7.172 -38.852,7.14 z m 32.715,4.082 c 10.223,7.16 16.36,16.363 10.223,24.543 -8.192,11.227 -23.524,5.11 -31.692,0 -10.226,-8.191 -14.308,-18.414 -9.195,-26.574 6.141,-8.191 18.387,-6.137 30.664,2.031 z m 27.586,-10.222 c 6.137,4.085 6.137,5.109 5.106,8.191 l -1.02,2.031 c 0,1.024 2.051,1.024 3.074,2.055 2.031,-4.086 4.082,-6.137 6.137,-10.223 2.031,-3.054 4.086,-6.14 7.141,-9.195 0,-1.02 -2.036,-2.031 -3.055,-2.031 l -1.024,2.031 c -3.054,1.012 -3.054,1.012 -10.222,-2.031 l -8.172,-5.125 c -1.02,-2.035 -1.02,-2.035 1.012,-4.086 1.023,-2.035 2.054,-2.035 4.105,-2.035 5.106,1.011 10.223,1.011 14.309,2.035 6.14,1.019 12.258,-2.035 16.343,-7.141 2.051,-3.074 3.075,-4.105 3.075,-7.16 h -2.055 c -1.02,1.023 -3.055,2.055 -5.105,3.055 -4.086,1.023 -12.258,0 -23.5,-2.032 -1.024,0 -1.024,0 -1.024,-1.023 0,-4.086 1.024,-10.223 -5.105,-13.277 -5.11,-3.075 -9.196,-3.075 -14.309,-2.051 -3.055,2.051 -8.172,6.137 -11.246,11.242 -5.086,7.141 -8.172,12.258 -11.227,17.363 0,1.024 2.036,2.055 2.036,2.055 l 2.05,-2.055 c 2.055,-3.054 3.055,-2.031 9.192,3.075 z m -21.449,-28.606 c -3.074,-3.055 -3.074,-3.055 -1.024,-6.141 3.055,-5.105 10.227,-6.117 16.364,-1.011 3.054,3.054 4.086,5.109 5.086,7.14 1.023,3.075 -1.012,4.086 -2.032,6.137 -3.054,4.086 -3.054,4.086 -5.109,2.055 z m 29.637,-47.023 c -2.051,-1.012 -3.071,-1.012 -2.051,-3.055 l 4.086,-6.117 c 1.019,-3.074 4.086,-5.129 6.136,-5.129 h 7.161 c 0,0 2.031,-2.031 1.011,-2.031 -4.086,-3.075 -10.222,-5.106 -11.226,-6.137 0,2.051 -3.074,5.105 -5.106,10.223 l -8.191,14.308 c -3.055,4.086 -5.106,7.16 -7.141,10.223 0,0 1.024,2.051 2.035,2.051 l 2.051,-2.051 c 2.035,-3.055 3.055,-3.055 9.196,0 l 25.55,16.363 c 6.141,4.082 6.141,4.082 6.141,7.137 l -2.055,4.105 c -1.019,1.012 2.055,2.035 3.055,1.012 3.074,-4.086 4.105,-8.172 6.137,-11.223 l 5.109,-9.195 c 4.105,-5.105 8.188,-12.273 10.223,-16.359 -1.024,-2.055 -6.118,-6.141 -8.172,-9.192 -2.051,0 -3.074,1.02 -3.074,2.031 6.14,9.192 4.105,11.247 1.023,17.383 -4.086,5.106 -4.086,6.137 -7.141,6.137 -1.023,0 -3.074,-1.02 -6.136,-3.074 l -8.172,-5.106 c -2.055,-1.019 -2.055,-1.019 -2.055,-3.054 l 3.055,-5.106 c 2.054,-4.105 3.074,-4.105 7.16,-2.055 l 2.035,1.024 c 1.02,0 2.051,-3.074 2.051,-3.074 -3.055,-1.012 -6.137,-2.035 -8.172,-4.067 -3.074,-2.05 -5.105,-4.105 -7.16,-4.105 0,-1.012 -2.031,1.023 -2.031,2.055 l 2.031,1.019 c 3.074,3.055 3.074,4.086 1.023,7.141 l -3.054,5.105 c -1.02,2.055 -1.02,2.055 -3.075,1.024 z"
         style="fill:#cf4037;fill-opacity:1;fill-rule:evenodd;stroke:none"
         id="path39" /></g></g></svg>
