<?xml version="1.0" encoding="UTF-8" standalone="no"?>
<!-- Generator: Adobe Illustrator 14.0.0, SVG Export Plug-In . SVG Version: 6.00 Build 43363)  -->

<svg
   version="1.1"
   id="Layer_1"
   x="0px"
   y="0px"
   width="192.756"
   height="192.756"
   viewBox="0 0 192.756 192.756"
   enable-background="new 0 0 612 792"
   xml:space="preserve"
   sodipodi:docname="mcgill-university-0.svg"
   inkscape:version="1.1 (c68e22c387, 2021-05-23)"
   xmlns:inkscape="http://www.inkscape.org/namespaces/inkscape"
   xmlns:sodipodi="http://sodipodi.sourceforge.net/DTD/sodipodi-0.dtd"
   xmlns="http://www.w3.org/2000/svg"
   xmlns:svg="http://www.w3.org/2000/svg"><defs
   id="defs69" /><sodipodi:namedview
   id="namedview67"
   pagecolor="#ffffff"
   bordercolor="#666666"
   borderopacity="1.0"
   inkscape:pageshadow="2"
   inkscape:pageopacity="0.0"
   inkscape:pagecheckerboard="0"
   showgrid="false"
   fit-margin-top="0"
   fit-margin-left="0"
   fit-margin-right="0"
   fit-margin-bottom="0"
   inkscape:zoom="2.942707"
   inkscape:cx="104.49562"
   inkscape:cy="131.34165"
   inkscape:window-width="1920"
   inkscape:window-height="1009"
   inkscape:window-x="-8"
   inkscape:window-y="-8"
   inkscape:window-maximized="1"
   inkscape:current-layer="Layer_1" />
<g
   id="g64"
   transform="translate(-209,-300)">
	<polygon
   fill-rule="evenodd"
   clip-rule="evenodd"
   fill="#ffffff"
   points="401.756,492.756 209,492.756 209,300 401.756,300 "
   id="polygon2" />
	<path
   fill-rule="evenodd"
   clip-rule="evenodd"
   fill="#ef3e33"
   d="m 270.613,411.32 c 0,-0.936 0.883,-0.572 0.883,-0.936 0,-0.156 -0.364,-0.104 -0.416,-0.104 -0.416,0 -0.832,0.051 -1.247,0.051 -0.364,0 -0.676,-0.051 -1.04,-0.051 -0.052,0 -0.26,0 -0.26,0.104 0,0.416 1.04,0.104 1.04,0.883 v 4.418 c 0,2.027 0.675,4.002 4.105,4.002 3.847,0 3.69,-3.273 3.69,-3.896 v -4.107 c 0,-1.195 0.78,-0.936 0.78,-1.299 0,-0.053 -0.104,-0.104 -0.156,-0.104 -0.26,0 -0.52,0.051 -0.728,0.051 -0.52,0 -1.04,-0.051 -1.559,-0.051 -0.052,0 -0.156,0.051 -0.156,0.104 0,0.52 1.248,-0.053 1.248,1.299 v 4.262 c 0,1.561 -0.572,3.172 -3.015,3.172 -1.819,0 -3.17,-0.936 -3.17,-3.068 v -4.73 z"
   id="path4" />
	<path
   fill-rule="evenodd"
   clip-rule="evenodd"
   fill="#ef3e33"
   d="m 285.062,417.713 c 0,1.818 -1.144,1.248 -1.144,1.715 0,0.053 0,0.156 0.156,0.156 0.104,0 0.779,-0.053 1.247,-0.053 0.624,0 1.04,0.053 1.352,0.053 0.104,0 0.104,-0.104 0.104,-0.207 0,-0.313 -1.143,0.104 -1.143,-1.041 v -5.404 c 0,-0.26 0.052,-0.313 0.104,-0.313 0.104,0 0.26,0.26 0.26,0.26 l 5.665,6.393 c 0.26,0.313 0.416,0.365 0.52,0.365 0.104,0 0.104,-0.209 0.104,-0.572 v -7.641 c 0,-0.936 0.78,-0.727 0.78,-1.039 0,-0.104 -0.052,-0.104 -0.156,-0.104 -0.312,0 -0.883,0.051 -1.299,0.051 -0.416,0 -0.832,-0.051 -1.195,-0.051 -0.104,0 -0.156,0 -0.156,0.104 0,0.416 1.455,-0.053 1.455,1.662 v 5.51 c 0,0.104 0,0.156 -0.052,0.156 0,0 -0.052,-0.053 -0.156,-0.156 l -6.289,-7.016 c -0.052,-0.053 -0.156,-0.26 -0.312,-0.26 -0.208,0 -0.416,0.051 -0.624,0.051 -0.208,0 -0.416,-0.051 -0.624,-0.051 -0.052,0 -0.156,0.051 -0.156,0.104 0,0.467 1.56,-0.26 1.56,2.443 v 4.885 z"
   id="path6" />
	<path
   fill-rule="evenodd"
   clip-rule="evenodd"
   fill="#ef3e33"
   d="m 300.342,418.129 c 0,1.299 -1.039,0.883 -1.039,1.248 0,0.104 0.052,0.207 0.312,0.207 0.156,0 0.416,-0.053 1.248,-0.053 0.572,0 1.144,0.053 1.403,0.053 0.259,0 0.312,-0.053 0.312,-0.156 0,-0.363 -1.195,-0.104 -1.195,-0.986 v -7.068 c 0,-0.988 0.936,-0.676 0.936,-0.988 0,-0.104 -0.052,-0.104 -0.26,-0.104 -0.364,0 -0.779,0.051 -1.195,0.051 -0.468,0 -0.987,-0.051 -1.455,-0.051 -0.104,0 -0.104,0 -0.104,0.104 0,0.313 1.039,0.053 1.039,0.988 v 6.755 z"
   id="path8" />
	<path
   fill-rule="evenodd"
   clip-rule="evenodd"
   fill="#ef3e33"
   d="m 312.4,418.961 c 0.104,0.26 0.26,0.832 0.468,0.832 0.208,0 0.312,-0.469 0.468,-0.781 l 3.274,-7.744 c 0.363,-0.883 0.728,-0.57 0.728,-0.83 0,-0.105 -0.104,-0.156 -0.208,-0.156 -0.208,0 -0.416,0.051 -1.04,0.051 -0.26,0 -0.571,-0.051 -0.883,-0.051 -0.104,0 -0.156,0 -0.156,0.156 0,0.311 0.832,0.051 0.832,0.623 0.052,0.313 -0.104,0.727 -0.209,0.936 l -2.286,5.613 c -0.052,0.156 -0.104,0.363 -0.208,0.363 -0.156,0 -0.26,-0.26 -0.52,-0.986 l -2.339,-5.406 c -0.052,-0.104 -0.104,-0.313 -0.104,-0.52 0,-0.469 0.572,-0.469 0.521,-0.676 0,-0.053 -0.104,-0.104 -0.156,-0.104 -0.208,0 -0.676,0.051 -1.039,0.051 -0.416,0 -0.832,-0.051 -1.196,-0.051 -0.155,0 -0.208,0.051 -0.208,0.156 0,0.311 0.676,0.051 1.04,0.83 z"
   id="path10" />
	<path
   fill-rule="evenodd"
   clip-rule="evenodd"
   fill="#ef3e33"
   d="m 324.874,411.633 c 0,-0.885 -0.053,-0.832 1.247,-0.832 0.52,0 1.871,-0.053 2.234,0.363 0.209,0.313 0,0.936 0.313,0.936 0.052,0 0.26,-0.104 0.26,-1.559 0,-0.156 -0.052,-0.26 -0.156,-0.26 -0.363,0 -1.611,0.051 -1.871,0.051 -0.52,0 -1.247,-0.051 -3.689,-0.051 -0.416,0 -0.468,0.051 -0.468,0.156 0,0.154 0.26,0.154 0.363,0.207 0.728,0.104 0.728,0.729 0.728,1.299 v 6.029 c 0,0.572 -0.052,0.988 -0.363,1.145 -0.416,0.207 -0.572,0.154 -0.572,0.311 0,0.104 0.053,0.156 0.208,0.156 0.52,0 1.04,-0.053 1.56,-0.053 1.039,-0.051 2.026,0.053 3.015,0.053 0.571,0 0.884,0 1.299,-0.467 0.313,-0.313 0.676,-0.781 0.676,-1.248 0,-0.053 -0.052,-0.156 -0.104,-0.156 -0.208,0 -0.624,1.352 -3.69,1.352 -1.092,0 -0.987,-0.313 -0.987,-1.092 v -2.443 c 0,-0.207 -0.053,-0.414 0.26,-0.414 h 1.923 c 1.092,0 0.676,1.143 1.04,1.143 0.104,0 0.155,-0.053 0.155,-0.156 0,-0.363 0,-0.676 0,-1.039 0,-0.416 0,-0.883 0,-1.352 0,-0.104 -0.052,-0.207 -0.155,-0.207 -0.313,0 0.052,1.039 -1.3,1.039 h -1.403 c -0.572,0 -0.52,0 -0.52,-0.469 v -2.442 z"
   id="path12" />
	<path
   fill-rule="evenodd"
   clip-rule="evenodd"
   fill="#ef3e33"
   d="m 339.635,414.803 c 0.936,-0.363 1.663,-1.248 1.663,-2.287 0,-2.547 -2.911,-2.234 -3.119,-2.234 -0.676,0 -1.455,0.051 -2.183,0.051 -0.676,0 -0.623,-0.051 -0.832,-0.051 -0.155,0 -0.259,0.051 -0.259,0.156 0,0.414 1.091,-0.105 1.091,1.143 v 6.705 c 0,0.986 -0.936,0.832 -0.936,1.143 0,0.053 0.052,0.156 0.104,0.156 0.521,0 1.04,-0.053 1.508,-0.053 1.092,0 1.403,0.053 1.507,0.053 0.104,0 0.261,0 0.261,-0.104 0,-0.469 -1.404,-0.053 -1.404,-1.195 v -2.756 c 0,-0.154 -0.052,-0.363 0.364,-0.363 1.455,0 1.247,-0.051 1.768,0.676 l 1.455,2.287 c 0.468,0.779 0.987,1.455 1.975,1.455 0.104,0 0.832,0 0.832,-0.156 0,-0.311 -0.624,0.156 -1.611,-1.299 z m -2.6,-3.639 c 0,-0.52 0.313,-0.467 0.78,-0.467 1.299,0 2.494,0.52 2.494,2.131 0,1.662 -1.247,1.871 -1.818,1.871 -0.624,0 -1.456,0.051 -1.456,-0.156 z"
   id="path14" />
	<path
   fill-rule="evenodd"
   clip-rule="evenodd"
   fill="#ef3e33"
   d="m 349.197,418.961 c 0.053,0.207 1.248,0.727 2.235,0.727 2.962,0 3.742,-1.662 3.742,-2.807 0,-3.586 -5.302,-2.182 -5.302,-4.625 0,-1.248 1.092,-1.715 2.131,-1.715 1.144,0 2.131,0.572 2.495,1.715 0.052,0.104 0.156,0.363 0.26,0.363 0.155,0 0.155,-0.051 0.155,-0.156 l -0.207,-1.818 c 0,-0.156 -0.052,-0.156 -0.156,-0.156 -0.104,0 -0.156,0.104 -0.26,0.104 -0.156,0 -0.624,-0.467 -2.183,-0.467 -1.56,0 -2.963,0.832 -2.963,2.494 0,3.43 5.354,2.027 5.354,4.521 0,1.404 -1.195,2.08 -2.442,2.08 -1.819,0 -2.651,-1.352 -2.807,-1.977 -0.053,-0.258 -0.053,-0.414 -0.208,-0.414 -0.156,0 -0.208,0.156 -0.156,0.414 z"
   id="path16" />
	<path
   fill-rule="evenodd"
   clip-rule="evenodd"
   fill="#ef3e33"
   d="m 362.295,418.129 c 0,1.299 -1.039,0.883 -1.039,1.248 0,0.104 0.052,0.207 0.26,0.207 0.208,0 0.468,-0.053 1.299,-0.053 0.521,0 1.092,0.053 1.403,0.053 0.208,0 0.26,-0.053 0.26,-0.156 0,-0.363 -1.143,-0.104 -1.143,-0.986 v -7.068 c 0,-0.988 0.936,-0.676 0.936,-0.988 0,-0.104 -0.053,-0.104 -0.261,-0.104 -0.415,0 -0.831,0.051 -1.195,0.051 -0.52,0 -0.987,-0.051 -1.455,-0.051 -0.104,0 -0.156,0 -0.156,0.104 0,0.313 1.04,0.053 1.092,0.988 v 6.755 z"
   id="path18" />
	<path
   fill-rule="evenodd"
   clip-rule="evenodd"
   fill="#ef3e33"
   d="m 373.833,418.441 c 0,0.779 -1.039,0.623 -1.039,0.936 0,0.154 0,0.207 0.155,0.207 0.053,0 0.313,-0.053 1.768,-0.053 0.416,0 0.779,0.053 1.092,0.053 0.104,0 0.104,-0.156 0.104,-0.156 0,-0.416 -1.039,0 -1.039,-1.092 v -6.703 c 0,-0.729 -0.104,-0.676 0.52,-0.676 h 1.871 c 1.352,0 0.623,1.039 1.091,1.039 0.208,0 0.156,-0.156 0.156,-0.313 l -0.052,-1.039 c 0,-0.313 -0.104,-0.363 -0.364,-0.363 -0.26,0 -1.507,0.051 -3.897,0.051 -1.663,0 -2.703,-0.051 -3.69,-0.051 -0.26,0 -0.26,0.311 -0.26,0.467 l -0.156,1.299 c 0,0.053 0.053,0.156 0.156,0.156 0.155,0 0.155,-0.156 0.208,-0.311 0.26,-0.729 0.26,-0.936 1.091,-0.936 h 2.132 c 0.207,0.051 0.155,0.52 0.155,0.623 v 6.862 z"
   id="path20" />
	<path
   fill-rule="evenodd"
   clip-rule="evenodd"
   fill="#ef3e33"
   d="m 386.982,414.594 c 0.104,0.156 0.26,0.416 0.26,0.676 v 3.172 c 0,0.936 -0.987,0.623 -0.987,0.986 0,0.156 0.052,0.156 0.208,0.156 0.104,0 0.571,-0.053 1.195,-0.053 0.468,0 1.247,0.053 1.403,0.053 0.208,0 0.312,0 0.312,-0.156 0,-0.416 -1.091,-0.051 -1.091,-1.195 v -3.223 c 0,-0.156 0.104,-0.26 0.363,-0.57 l 1.819,-2.859 c 0.208,-0.313 0.364,-0.729 0.728,-0.936 0.104,-0.053 0.313,-0.104 0.313,-0.207 0,-0.105 -0.053,-0.156 -0.156,-0.156 -0.364,0 -0.728,0.051 -1.144,0.051 -0.312,0 -0.624,-0.051 -0.936,-0.051 -0.156,0 -0.26,0 -0.26,0.156 0,0.311 0.987,0.051 0.987,0.727 0,0.313 -0.208,0.572 -0.312,0.676 l -1.352,2.234 c -0.104,0.156 -0.156,0.26 -0.26,0.26 -0.052,0 -0.156,-0.104 -0.26,-0.26 l -1.56,-2.547 c -0.104,-0.104 -0.26,-0.311 -0.26,-0.52 0,-0.363 0.624,-0.416 0.624,-0.623 0,-0.104 -0.156,-0.104 -0.26,-0.104 -0.104,0 -0.469,0.051 -0.884,0.051 -0.936,0 -1.144,-0.051 -1.508,-0.051 -0.104,0 -0.208,0.104 -0.208,0.156 0,0.26 0.676,0.104 0.988,0.623 z"
   id="path22" />
	<path
   fill-rule="evenodd"
   clip-rule="evenodd"
   fill="#ef3e33"
   d="m 362.243,374.991 c 1.299,0 2.391,1.091 2.391,2.391 0,1.351 -1.092,2.443 -2.391,2.443 -1.352,0 -2.391,-1.092 -2.391,-2.443 0.001,-1.3 1.04,-2.391 2.391,-2.391 z m 22.868,25.622 c -0.104,1.039 -0.623,1.715 -2.599,2.287 -1.56,0.52 -1.352,1.352 0.208,1.404 4.262,-0.625 5.613,-0.521 9.459,-0.105 1.508,0 1.248,-0.986 0.313,-1.402 -2.235,-0.885 -2.599,-0.885 -3.067,-3.119 l -0.155,-22.453 c 0,-1.299 0.468,-2.807 -0.884,-2.442 -2.547,0.987 -2.754,1.091 -5.093,1.923 -1.248,0.52 -0.78,1.091 0.104,1.403 1.247,0.52 1.352,1.248 1.455,2.183 z m -13.149,-0.156 c -0.104,1.092 -0.623,1.768 -2.599,2.34 -1.559,0.467 -1.403,1.299 0.208,1.402 4.262,-0.623 5.613,-0.52 9.459,-0.104 1.456,-0.053 1.248,-0.986 0.313,-1.455 -2.287,-0.883 -2.6,-0.883 -3.066,-3.119 l -0.156,-22.4 c 0,-1.299 0.468,-2.806 -0.884,-2.494 -2.599,1.039 -2.807,1.143 -5.093,1.923 -1.248,0.52 -0.78,1.143 0.104,1.403 1.247,0.52 1.352,1.299 1.403,2.183 z m -12.006,-8.835 c -0.104,-1.144 -0.26,-2.027 -1.56,-2.391 -0.935,-0.104 -1.402,-0.936 -0.052,-1.456 2.651,-0.832 3.015,-0.987 5.094,-2.65 0.623,-0.364 1.352,-0.052 0.987,1.091 -0.104,0.832 -0.104,1.248 -0.155,2.183 v 11.694 c 0.104,1.924 1.61,2.234 2.546,2.6 0.936,0.363 1.04,1.506 -0.104,1.506 -4.105,-0.57 -5.042,-0.623 -9.044,0.209 -1.351,0 -1.61,-1.041 0.052,-1.611 1.611,-0.572 2.184,-0.885 2.235,-2.287 v -8.888 z m -36.745,-2.131 c 0.936,-9.979 7.328,-14.137 16.319,-14.864 9.512,0.052 10.862,0.675 10.707,5.977 0.052,1.923 -1.195,2.339 -2.079,0.208 -1.039,-1.975 -1.871,-3.119 -4.262,-4.106 -8.212,-1.819 -14.241,3.43 -14.604,12.37 -0.572,12.577 13.513,16.268 16.423,11.538 0.624,-1.195 0.624,-4.47 0.572,-7.172 -0.52,-1.768 -2.234,-1.559 -3.846,-1.664 -1.819,0.156 -2.443,-1.871 -0.053,-1.871 2.339,0 6.757,0.26 12.474,-0.312 1.716,0.104 1.819,1.611 -0.26,1.871 -0.884,0.156 -2.754,0.156 -3.014,1.611 -0.208,7.692 1.559,8.42 -4.21,10.499 -7.381,1.715 -15.333,0.936 -19.803,-3.379 -2.025,-1.818 -4.52,-5.872 -4.364,-10.706 z m -19.023,5.093 c 0.832,-8.264 7.693,-10.239 11.227,-10.239 4.209,0.104 5.561,1.507 5.612,2.911 0,1.403 -0.987,2.131 -2.079,1.819 -2.286,-0.572 -1.818,-3.015 -4.885,-3.223 -3.482,0.52 -5.613,4.418 -4.989,9.095 0.571,4.626 5.093,8.108 10.602,5.249 1.352,-0.26 1.456,0.832 0.364,1.561 -10.135,6.237 -16.268,-2.599 -15.852,-7.173 z m -31.236,-13.929 c -0.208,-2.806 -1.092,-1.975 -3.275,-2.806 -1.767,-0.364 -1.923,-1.611 -0.156,-1.715 3.118,0.26 4.678,0.312 7.276,-0.104 1.195,0.208 1.715,0.676 2.131,1.819 2.183,4.625 5.354,11.538 7.536,16.164 0.416,0.832 0.624,0.988 1.092,-0.104 L 294,377.486 c 0.728,-1.403 1.508,-1.715 3.743,-1.507 3.898,0.052 4.833,-0.052 6.756,-0.26 1.611,0.052 1.507,1.299 -0.104,1.767 -2.495,0 -3.794,0.883 -4.21,2.754 l 0.364,18.868 c 0.416,2.805 1.871,2.91 4.521,3.586 1.143,0.52 0.883,1.35 -0.104,1.611 -5.509,-0.625 -7.38,-0.572 -12.837,-0.053 -1.56,0.156 -1.664,-1.195 0.052,-1.559 1.975,-0.469 2.495,-0.832 2.962,-1.871 l -0.416,-18.191 c -0.052,-0.728 -0.52,-0.728 -0.78,0.104 l -7.692,19.177 c -0.728,1.664 -1.04,1.664 -1.819,0.365 l -9.095,-19.646 c -0.26,-0.676 -0.624,-0.468 -0.624,-0.052 l 0.052,17.359 c 0.26,2.027 1.663,2.131 4.522,3.016 0.779,0.26 0.831,0.936 0.156,1.352 -5.509,-0.469 -6.445,-0.469 -11.539,0.207 -0.832,0 -1.195,-1.195 0.052,-1.352 2.703,-0.779 3.482,-0.832 3.846,-2.391 z"
   id="path24" />
	<path
   fill-rule="evenodd"
   clip-rule="evenodd"
   fill="#ffffff"
   d="m 218.535,394.429 c -1.767,-6.185 -0.728,-11.954 -0.728,-18.867 6.185,-3.118 12.37,-3.378 19.022,-3.378 5.769,0 13.929,0.728 18.814,3.378 0.52,6.497 0.832,12.266 -0.884,19.698 -1.663,7.433 -6.548,17.724 -17.723,25.312 -12.16,-8.004 -16.11,-17.619 -18.501,-26.143 z"
   id="path26" />
	<path
   fill-rule="evenodd"
   clip-rule="evenodd"
   fill="#ef3e33"
   d="m 219.055,394.48 c -1.663,-5.977 -0.676,-11.538 -0.676,-18.294 6.029,-2.963 11.954,-3.274 18.399,-3.274 5.613,0 13.513,0.728 18.295,3.274 0.468,6.341 0.728,11.902 -0.884,19.126 -1.611,7.172 -6.341,17.15 -17.151,24.48 C 225.24,412.1 221.394,402.744 219.055,394.48 Z"
   id="path28" />
	<path
   fill-rule="evenodd"
   clip-rule="evenodd"
   fill="#ffffff"
   d="m 224.72,385.697 -5.769,6.289 c 1.299,6.081 4.886,18.762 18.087,27.338 13.045,-8.992 16.527,-21.309 17.307,-27.442 l -5.613,-6.237 -6.289,6.341 -5.717,-6.289 -5.769,6.237 z"
   id="path30" />
	<path
   fill-rule="evenodd"
   clip-rule="evenodd"
   fill="#ffffff"
   d="m 227.371,379.304 c -0.052,0 -0.208,-0.104 0,-0.156 0.156,0 0.416,0 0.78,0.416 0.104,-0.052 0.468,-0.571 0.779,-0.416 0,0.052 -1.143,2.599 -1.248,2.807 -0.52,-0.26 -3.482,-0.468 -3.17,-0.468 0.26,0 -2.703,0.104 -3.119,0.468 -0.156,-0.26 -1.299,-2.858 -1.299,-2.858 0.364,-0.156 0.728,0.363 0.832,0.416 0.312,-0.416 0.624,-0.416 0.676,-0.416 0.312,0.052 0.104,0.104 0.104,0.208 -1.456,1.144 0.624,2.443 1.091,1.144 1.819,0.208 1.299,-1.299 0.883,-1.507 -0.363,-0.052 -0.156,-0.156 0,-0.156 0.104,-0.052 0.364,-0.052 0.364,0.104 0,-0.831 0.052,-1.351 0.468,-1.611 0.468,0.312 0.52,0.78 0.468,1.611 0.052,-0.156 0.26,-0.104 0.416,-0.104 0.052,0.104 0.364,0.104 0.052,0.208 -0.468,0.156 -0.936,1.715 0.883,1.455 0.416,1.298 2.599,-0.157 1.04,-1.145 z m -1.196,1.508 0.52,0.624 -1.039,-0.156 z m -1.663,-0.728 0.676,1.195 h -1.299 z m -1.611,0.728 -0.52,0.624 1.04,-0.156 z"
   id="path32" />
	<path
   fill-rule="evenodd"
   clip-rule="evenodd"
   fill="#ffffff"
   d="m 222.122,383.358 c -0.208,-0.312 -0.416,-0.936 -0.572,-1.092 0.52,-0.416 2.391,-0.468 3.066,-0.468 0.987,0 2.391,0.156 2.858,0.468 0,0 -0.208,0.728 -0.416,1.195 -0.779,-0.312 -1.871,-0.416 -2.546,-0.416 -0.832,10e-4 -1.767,0.105 -2.39,0.313 z m 4.677,-0.987 c 0.156,0 0.312,0.208 0.312,0.312 0,0.208 -0.156,0.364 -0.312,0.364 -0.156,0 -0.364,-0.156 -0.364,-0.364 0,-0.104 0.208,-0.312 0.364,-0.312 z m -1.091,-0.208 c 0.156,0 0.312,0.156 0.312,0.312 0,0.156 -0.156,0.364 -0.312,0.364 -0.156,0 -0.364,-0.208 -0.364,-0.364 0,-0.156 0.208,-0.312 0.364,-0.312 z m -1.196,-0.104 c 0.208,0 0.364,0.156 0.364,0.312 0,0.208 -0.156,0.364 -0.364,0.364 -0.104,0 -0.312,-0.156 -0.312,-0.364 0,-0.156 0.208,-0.312 0.312,-0.312 z m -1.143,0.104 c 0.208,0 0.364,0.156 0.364,0.312 0,0.156 -0.156,0.364 -0.364,0.364 -0.156,0 -0.312,-0.208 -0.312,-0.364 0,-0.156 0.156,-0.312 0.312,-0.312 z m -1.04,0.208 c 0.156,0 0.364,0.208 0.364,0.312 0,0.208 -0.208,0.364 -0.364,0.364 -0.156,0 -0.364,-0.156 -0.364,-0.364 0,-0.104 0.208,-0.312 0.364,-0.312 z"
   id="path34" />
	<path
   fill-rule="evenodd"
   clip-rule="evenodd"
   fill="#ffffff"
   d="m 224.564,383.254 c 1.299,0 2.495,0.26 2.495,0.416 0,0.104 -1.039,0.208 -2.391,0.208 -1.299,0 -2.443,-0.104 -2.443,-0.208 0,-0.156 1.04,-0.416 2.339,-0.416 z"
   id="path36" />
	<path
   fill-rule="evenodd"
   clip-rule="evenodd"
   fill="#ffffff"
   d="m 252.059,379.304 c -0.052,0 -0.208,-0.104 0,-0.156 0.104,0 0.416,0 0.728,0.416 0.156,-0.052 0.468,-0.571 0.831,-0.416 0,0.052 -1.143,2.599 -1.299,2.807 -0.468,-0.26 -3.431,-0.468 -3.17,-0.468 0.26,0 -2.651,0.104 -3.119,0.468 -0.156,-0.26 -1.299,-2.858 -1.299,-2.858 0.364,-0.156 0.728,0.363 0.883,0.416 0.26,-0.416 0.572,-0.416 0.624,-0.416 0.312,0.052 0.104,0.104 0.104,0.208 -1.403,1.144 0.624,2.443 1.091,1.144 1.819,0.208 1.299,-1.299 0.883,-1.507 -0.364,-0.052 -0.104,-0.156 0,-0.156 0.156,-0.052 0.364,-0.052 0.364,0.104 0,-0.831 0.052,-1.351 0.468,-1.611 0.467,0.312 0.52,0.78 0.467,1.611 0.052,-0.156 0.26,-0.104 0.468,-0.104 0.052,0.104 0.312,0.104 0.052,0.208 -0.52,0.156 -0.987,1.715 0.832,1.455 0.415,1.298 2.598,-0.157 1.092,-1.145 z m -1.248,1.508 0.571,0.624 -1.039,-0.156 z m -1.663,-0.728 0.676,1.195 h -1.248 z m -1.611,0.728 -0.52,0.624 1.04,-0.156 z"
   id="path38" />
	<path
   fill-rule="evenodd"
   clip-rule="evenodd"
   fill="#ffffff"
   d="m 246.809,383.358 c -0.208,-0.312 -0.468,-0.936 -0.572,-1.092 0.468,-0.416 2.339,-0.468 3.015,-0.468 1.039,0 2.391,0.156 2.858,0.468 0,0 -0.208,0.728 -0.364,1.195 -0.832,-0.312 -1.871,-0.416 -2.599,-0.416 -0.779,10e-4 -1.714,0.105 -2.338,0.313 z m 4.626,-0.987 c 0.156,0 0.364,0.208 0.364,0.312 0,0.208 -0.208,0.364 -0.364,0.364 -0.156,0 -0.312,-0.156 -0.312,-0.364 0,-0.104 0.156,-0.312 0.312,-0.312 z m -1.092,-0.208 c 0.156,0 0.364,0.156 0.364,0.312 0,0.156 -0.208,0.364 -0.364,0.364 -0.156,0 -0.312,-0.208 -0.312,-0.364 0,-0.156 0.156,-0.312 0.312,-0.312 z m -1.143,-0.104 c 0.156,0 0.312,0.156 0.312,0.312 0,0.208 -0.156,0.364 -0.312,0.364 -0.156,0 -0.364,-0.156 -0.364,-0.364 0,-0.156 0.208,-0.312 0.364,-0.312 z m -1.196,0.104 c 0.208,0 0.364,0.156 0.364,0.312 0,0.156 -0.156,0.364 -0.364,0.364 -0.104,0 -0.312,-0.208 -0.312,-0.364 0,-0.156 0.208,-0.312 0.312,-0.312 z m -1.039,0.208 c 0.156,0 0.364,0.208 0.364,0.312 0,0.208 -0.208,0.364 -0.364,0.364 -0.156,0 -0.312,-0.156 -0.312,-0.364 0,-0.104 0.156,-0.312 0.312,-0.312 z"
   id="path40" />
	<path
   fill-rule="evenodd"
   clip-rule="evenodd"
   fill="#ffffff"
   d="m 249.2,383.254 c 1.299,0 2.495,0.26 2.495,0.416 0,0.104 -1.04,0.208 -2.391,0.208 -1.299,0 -2.443,-0.104 -2.443,-0.208 0,-0.156 1.039,-0.416 2.339,-0.416 z"
   id="path42" />
	<path
   fill-rule="evenodd"
   clip-rule="evenodd"
   fill="#ef3e33"
   d="m 223.94,397.34 c 0.104,-0.209 0.26,-0.78 0.364,-0.936 -0.104,-0.208 -0.26,-0.416 -0.468,-0.416 0.104,-0.208 0.416,-0.468 0.364,-0.624 -0.052,-0.208 -0.208,-0.156 -0.572,-0.312 0.104,-0.26 0.416,-0.416 0.52,-0.416 0.208,-0.052 0.208,-0.312 0.571,-0.468 0.313,-0.208 0.676,-0.208 1.04,-0.208 0.572,0.052 2.027,0.468 1.664,2.235 0.831,1.767 3.95,-0.624 4.989,-0.624 -0.208,0.416 -0.416,0.832 -0.676,1.195 0.312,0.207 0.676,0 1.04,0 -0.364,0.988 -0.936,1.402 -1.403,1.768 0.468,1.611 2.287,0.986 3.95,0.779 -0.208,0.52 -0.884,0.623 -1.195,1.039 0.571,0.572 1.195,1.352 1.559,2.131 -0.728,-0.467 -2.235,-0.986 -2.755,-1.195 -0.935,-0.363 -2.962,-0.363 -3.95,0 0.208,0.416 0.572,0.572 0.883,0.832 -0.468,0.936 -1.507,0.363 -2.079,0.207 -0.52,0.365 -1.456,0.365 -1.663,0.156 0,0 0,-0.207 0.26,-0.467 0.208,-0.26 -0.572,-0.313 -0.832,-0.729 0,-0.313 0.468,0 0.624,-0.363 -0.467,-0.986 -2.547,-1.194 -2.235,-3.584 z m 1.404,-2.807 c 0.104,0 0.156,0.104 0.156,0.208 0,0.104 -0.052,0.208 -0.156,0.208 -0.104,0 -0.208,-0.104 -0.208,-0.208 0,-0.104 0.104,-0.208 0.208,-0.208 z"
   id="path44" />
	<path
   fill-rule="evenodd"
   clip-rule="evenodd"
   fill="#ef3e33"
   d="m 237.921,397.6 c 0.052,-0.156 0.26,-0.729 0.416,-0.936 -0.156,-0.208 -0.364,-0.417 -0.468,-0.417 0.052,-0.208 0.416,-0.468 0.312,-0.624 -0.052,-0.156 -0.208,-0.104 -0.52,-0.312 0.104,-0.26 0.312,-0.416 0.52,-0.416 0.208,0 0.208,-0.312 0.468,-0.52 0.364,-0.104 0.728,-0.104 1.144,-0.156 0.52,0.052 2.027,0.468 1.611,2.235 0.883,1.767 3.95,-0.624 5.042,-0.624 -0.208,0.416 -0.52,0.832 -0.676,1.195 0.26,0.207 0.676,0 0.987,0 -0.312,0.988 -0.936,1.404 -1.403,1.818 0.468,1.508 2.339,0.936 3.95,0.729 -0.156,0.572 -0.832,0.623 -1.195,1.039 0.572,0.572 1.195,1.352 1.611,2.184 -0.728,-0.52 -2.287,-1.039 -2.754,-1.248 -1.04,-0.363 -3.015,-0.363 -4.002,0 0.208,0.416 0.624,0.623 0.883,0.779 -0.52,1.039 -1.455,0.469 -2.027,0.26 -0.572,0.365 -1.455,0.365 -1.715,0.209 0,0 0,-0.313 0.312,-0.52 0.156,-0.26 -0.572,-0.313 -0.832,-0.729 0,-0.363 0.364,0 0.624,-0.363 -0.521,-0.986 -2.547,-1.193 -2.288,-3.583 z m 1.351,-2.755 c 0.156,0 0.208,0.052 0.208,0.156 0,0.104 -0.052,0.208 -0.208,0.208 -0.104,0 -0.156,-0.104 -0.156,-0.208 0,-0.104 0.052,-0.156 0.156,-0.156 z"
   id="path46" />
	<path
   fill-rule="evenodd"
   clip-rule="evenodd"
   fill="#ef3e33"
   d="m 231.217,407.578 c 0.104,-0.207 0.26,-0.779 0.416,-0.988 -0.156,-0.154 -0.312,-0.416 -0.468,-0.416 0.052,-0.207 0.364,-0.414 0.312,-0.57 -0.052,-0.209 -0.156,-0.156 -0.572,-0.365 0.156,-0.207 0.416,-0.363 0.572,-0.414 0.208,0 0.208,-0.262 0.52,-0.469 0.312,-0.156 0.728,-0.156 1.091,-0.207 0.52,0.051 1.975,0.467 1.611,2.287 0.832,1.715 4.002,-0.625 5.042,-0.625 -0.208,0.363 -0.468,0.779 -0.675,1.195 0.312,0.209 0.675,0 0.987,0 -0.312,0.936 -0.884,1.352 -1.352,1.768 0.468,1.559 2.287,0.988 3.95,0.779 -0.208,0.52 -0.883,0.572 -1.195,0.988 0.572,0.623 1.195,1.352 1.559,2.182 -0.728,-0.467 -2.235,-0.986 -2.754,-1.195 -0.988,-0.363 -2.962,-0.363 -4.002,0 0.208,0.365 0.572,0.572 0.936,0.781 -0.52,0.986 -1.507,0.414 -2.131,0.207 -0.468,0.416 -1.403,0.416 -1.664,0.207 0,0 0,-0.26 0.312,-0.467 0.208,-0.313 -0.571,-0.363 -0.832,-0.729 0,-0.363 0.416,0 0.624,-0.363 -0.52,-1.039 -2.599,-1.248 -2.287,-3.586 z m 1.455,-2.807 c 0.052,0 0.156,0.053 0.156,0.207 0,0.053 -0.104,0.156 -0.156,0.156 -0.156,0 -0.26,-0.104 -0.26,-0.156 0,-0.154 0.104,-0.207 0.26,-0.207 z"
   id="path48" />
	<path
   fill-rule="evenodd"
   clip-rule="evenodd"
   fill="#ffffff"
   d="m 232.62,375.51 c 0,0 0.883,0.364 1.663,0.052 0.883,-0.364 1.715,-0.571 2.339,-0.26 v 7.536 c -0.52,-0.208 -1.248,-0.104 -2.079,0.104 -0.779,0.156 -1.247,0.208 -1.923,0.052 z m 2.495,5.561 c 0,-0.26 0.208,-0.312 0.312,-0.312 0.104,0 0.26,0.052 0.26,0.312 0,0.312 -0.156,0.416 -0.26,0.416 -0.104,0 -0.312,-0.104 -0.312,-0.416 z m -0.208,0 c 0,0.52 0.364,0.572 0.52,0.572 0.104,0 0.468,-0.052 0.468,-0.572 0,-0.468 -0.364,-0.52 -0.468,-0.52 -0.156,0.001 -0.52,0.053 -0.52,0.52 z m -0.416,0.261 v 0 l -0.364,-0.728 h -0.26 v 1.04 h 0.208 v -0.728 l 0.416,0.728 h 0.208 v -1.04 h -0.208 z m -1.039,0.415 h 0.208 v -1.04 h -0.208 z m 2.598,-3.378 h -0.312 l -0.156,0.78 -0.208,-0.78 h -0.312 v 1.04 h 0.208 v -0.832 l 0.208,0.832 h 0.208 l 0.208,-0.832 v 0.832 h 0.156 z m -1.871,0.624 c 0,-0.312 0.156,-0.364 0.26,-0.364 0.104,0 0.26,0.052 0.26,0.364 0,0.26 -0.156,0.364 -0.26,0.364 -0.104,-0.001 -0.26,-0.105 -0.26,-0.364 z m -0.208,0 c 0,0.467 0.312,0.52 0.468,0.52 0.104,0 0.468,-0.052 0.468,-0.52 0,-0.468 -0.364,-0.52 -0.468,-0.52 -0.156,0 -0.468,0.052 -0.468,0.52 z m -0.779,-0.261 h 0.208 c 0.104,0 0.208,0.052 0.208,0.364 0,0.156 -0.052,0.312 -0.208,0.312 h -0.208 z m -0.208,0.884 h 0.416 c 0.364,0 0.416,-0.364 0.416,-0.52 0,-0.208 -0.052,-0.52 -0.364,-0.52 h -0.468 z m 1.923,-2.443 v 0 l -0.416,-0.728 h -0.208 v 0.987 h 0.156 v -0.676 l 0.416,0.676 h 0.208 v -0.987 h -0.156 z m -1.143,0.312 h 0.208 v -0.988 h -0.208 z"
   id="path50" />
	<polygon
   fill-rule="evenodd"
   clip-rule="evenodd"
   fill="#ffffff"
   points="231.685,383.67 232.412,382.995 232.412,375.51 231.685,376.082 "
   id="polygon52" />
	<path
   fill-rule="evenodd"
   clip-rule="evenodd"
   fill="#ffffff"
   d="m 231.893,383.774 0.728,-0.571 c 0.52,0.156 1.611,-0.052 2.131,-0.156 0.883,-0.104 1.248,-0.312 1.871,0 -0.364,0.156 -0.572,0.468 -0.572,0.728 h -4.158 z"
   id="path54" />
	<path
   fill-rule="evenodd"
   clip-rule="evenodd"
   fill="#ffffff"
   d="m 241.507,383.774 -0.675,-0.571 c -0.572,0.156 -1.611,-0.052 -2.131,-0.156 -0.935,-0.104 -1.247,-0.312 -1.767,0 0.26,0.156 0.468,0.468 0.416,0.728 h 4.157 z"
   id="path56" />
	<polygon
   fill-rule="evenodd"
   clip-rule="evenodd"
   fill="#ffffff"
   points="241.715,383.566 241.04,382.942 241.04,375.406 241.715,376.082 "
   id="polygon58" />
	<path
   fill-rule="evenodd"
   clip-rule="evenodd"
   fill="#ffffff"
   d="m 240.78,375.51 c 0,0 -0.883,0.364 -1.611,0.052 -0.935,-0.364 -1.715,-0.571 -2.235,-0.26 v 7.536 c 0.468,-0.208 1.092,-0.104 1.923,0.104 0.832,0.156 1.299,0.208 1.923,0.052 z m -3.014,6.081 h 0.416 c 0.364,0 0.416,-0.312 0.416,-0.52 0,-0.208 -0.052,-0.468 -0.416,-0.468 h -0.416 z m 0.207,-0.832 h 0.208 c 0.104,0 0.208,0.052 0.208,0.312 0,0.208 -0.052,0.364 -0.208,0.364 h -0.208 z m 0.884,0.468 c 0,0.52 0.364,0.572 0.52,0.572 0.104,0 0.468,-0.052 0.468,-0.572 0,-0.468 -0.364,-0.52 -0.468,-0.52 -0.156,0.001 -0.52,0.052 -0.52,0.52 z m 0.26,0 c 0,-0.259 0.104,-0.312 0.26,-0.312 0.104,0 0.26,0.052 0.26,0.312 0,0.312 -0.156,0.364 -0.26,0.364 -0.156,0 -0.26,-0.052 -0.26,-0.364 z m -0.832,-2.026 h 0.468 v -0.208 h -0.468 v -0.208 h 0.52 v -0.156 h -0.728 v 0.987 h 0.208 z m 0.78,0.415 h 0.208 v -0.987 h -0.208 z m -0.936,-2.806 c 0,-0.156 -0.156,-0.364 -0.416,-0.364 -0.312,0 -0.468,0.208 -0.468,0.52 0,0.364 0.156,0.572 0.468,0.572 0.208,0 0.364,-0.156 0.416,-0.364 h -0.208 c -0.052,0.104 -0.104,0.156 -0.208,0.156 -0.208,0 -0.26,-0.156 -0.26,-0.364 0,-0.26 0.156,-0.312 0.26,-0.312 0.156,0 0.156,0.104 0.208,0.156 z m 0.156,0.311 c 0,0.468 0.364,0.52 0.52,0.52 0.104,0 0.468,-0.052 0.468,-0.52 0,-0.468 -0.363,-0.52 -0.468,-0.52 -0.156,10e-4 -0.52,0.052 -0.52,0.52 z m 0.26,0 c 0,-0.312 0.156,-0.364 0.26,-0.364 0.104,0 0.26,0.052 0.26,0.364 0,0.26 -0.156,0.364 -0.26,0.364 -0.104,0 -0.26,-0.104 -0.26,-0.364 z m 1.507,0.209 v 0 l -0.364,-0.728 h -0.26 v 1.04 h 0.208 v -0.728 l 0.416,0.728 h 0.208 v -1.04 h -0.208 z"
   id="path60" />
	<path
   fill-rule="evenodd"
   clip-rule="evenodd"
   fill="#ffffff"
   d="m 236.778,383.203 c -0.312,0.312 -0.468,0.312 -0.364,0.571 h 0.624 c 0.052,-0.26 0,-0.416 -0.26,-0.571 z"
   id="path62" />
</g>
</svg>
